<svg width="328" height="200" viewBox="0 0 328 200" fill="none" xmlns="http://www.w3.org/2000/svg" xmlns:xlink="http://www.w3.org/1999/xlink">
<path d="M308 0C319.046 2.57703e-07 328 8.95431 328 20V180C328 191.046 319.046 200 308 200H233.162C223.552 200 214.523 195.396 208.879 187.617L207.984 186.383C202.34 178.604 193.312 174 183.701 174H30C13.4315 174 0 160.569 0 144V20C2.5772e-06 8.95431 8.95431 2.57703e-07 20 0H308Z" fill="url(#pattern0_5356_204093)"/>
<path d="M308 0C319.046 2.57703e-07 328 8.95431 328 20V180C328 191.046 319.046 200 308 200H233.162C223.552 200 214.523 195.396 208.879 187.617L207.984 186.383C202.34 178.604 193.312 174 183.701 174H30C13.4315 174 0 160.569 0 144V20C2.5772e-06 8.95431 8.95431 2.57703e-07 20 0H308Z" fill="black" fill-opacity="1"/>
<defs>
<pattern id="pattern0_5356_204093" patternContentUnits="objectBoundingBox" width="1" height="1">
<use xlink:href="#image0_5356_204093" transform="matrix(0.00025 0 0 0.00041 0 -0.115)"/>
</pattern>
</defs>
</svg>
