<svg width="16" height="16" viewBox="0 0 16 16" fill="none" xmlns="http://www.w3.org/2000/svg">
<path d="M6 9.99967L4 14.6663M10 9.99967L12 14.6663M8 9.99967V14.6663M8 9.99967C9.12416 10.0007 10.2111 9.59675 11.0617 8.8618C11.9124 8.12685 12.4698 7.11008 12.632 5.99767C12.674 5.70767 12.6947 5.56301 12.5947 5.44767C12.4947 5.33234 12.3333 5.33301 12.0107 5.33301H3.98933C3.66666 5.33301 3.50533 5.33301 3.40533 5.44767C3.30533 5.56301 3.326 5.70767 3.368 5.99767C3.53004 7.11014 4.08745 8.12699 4.93813 8.86196C5.7888 9.59694 6.87579 10.0008 8 9.99967ZM10.3707 3.99967C10.464 3.91548 10.5386 3.81263 10.5896 3.6978C10.6407 3.58296 10.667 3.45868 10.667 3.33301C10.667 3.20733 10.6407 3.08306 10.5896 2.96822C10.5386 2.85338 10.464 2.75054 10.3707 2.66634C10.2774 2.58214 10.2028 2.4793 10.1517 2.36446C10.1007 2.24962 10.0743 2.12535 10.0743 1.99967C10.0743 1.874 10.1007 1.74973 10.1517 1.63489C10.2028 1.52005 10.2774 1.41721 10.3707 1.33301M8 3.99967C8.0933 3.91548 8.16788 3.81263 8.21894 3.6978C8.26999 3.58296 8.29637 3.45868 8.29637 3.33301C8.29637 3.20733 8.26999 3.08306 8.21894 2.96822C8.16788 2.85338 8.0933 2.75054 8 2.66634C7.9067 2.58214 7.83211 2.4793 7.78106 2.36446C7.73001 2.24962 7.70363 2.12535 7.70363 1.99967C7.70363 1.874 7.73001 1.74973 7.78106 1.63489C7.83211 1.52005 7.9067 1.41721 8 1.33301M5.62933 3.99967C5.72263 3.91548 5.79722 3.81263 5.84827 3.6978C5.89932 3.58296 5.9257 3.45868 5.9257 3.33301C5.9257 3.20733 5.89932 3.08306 5.84827 2.96822C5.79722 2.85338 5.72263 2.75054 5.62933 2.66634C5.53603 2.58214 5.46144 2.4793 5.41039 2.36446C5.35934 2.24962 5.33296 2.12535 5.33296 1.99967C5.33296 1.874 5.35934 1.74973 5.41039 1.63489C5.46144 1.52005 5.53603 1.41721 5.62933 1.33301M5 12.6663H11M12.6667 6.66634H13.3333M3.33333 6.66634H2.66666" stroke="#02283F" stroke-linecap="round" stroke-linejoin="round"/>
</svg>
