<svg width="16" height="16" viewBox="0 0 16 16" fill="none" xmlns="http://www.w3.org/2000/svg">
<g clip-path="url(#clip0_5107_145000)">
<path d="M2.56342 2.56645V4.35159M7.77828 2.56645V4.35159M5.17142 1.2373V3.02245" stroke="#02283F" stroke-linecap="round" stroke-linejoin="round"/>
<path d="M13.1531 5.2594C13.1531 5.54886 13.2681 5.82647 13.4728 6.03115C13.6775 6.23584 13.9551 6.35083 14.2446 6.35083C14.534 6.35083 14.8116 6.23584 15.0163 6.03115C15.221 5.82647 15.336 5.54886 15.336 5.2594C15.336 4.96993 15.221 4.69232 15.0163 4.48764C14.8116 4.28296 14.534 4.16797 14.2446 4.16797C13.9551 4.16797 13.6775 4.28296 13.4728 4.48764C13.2681 4.69232 13.1531 4.96993 13.1531 5.2594Z" stroke="#02283F" stroke-linecap="round"/>
<path d="M12.3897 9.91634L12.632 10.0226C14.3234 10.8226 14.7909 11.8581 14.7909 13.2798V13.6203C14.7909 13.9234 14.6704 14.2141 14.4561 14.4285C14.2418 14.6428 13.9511 14.7632 13.648 14.7632H1.87428C1.50057 14.7632 1.14971 14.5792 1.00571 14.2341C0.689139 13.4695 0.321139 11.9335 1.27771 10.0226C2.66057 7.26149 6.06285 6.65463 8.24228 7.79749L8.34514 7.85006" stroke="#02283F" stroke-linecap="round" stroke-linejoin="round"/>
<path d="M11.6091 11.4347C12.6697 10.2712 12.7246 8.59465 11.7326 7.69179C10.7406 6.78894 9.0777 7.00037 8.01827 8.16379C7.05485 9.22094 6.92113 10.6998 7.64685 11.6381C7.71999 11.7348 7.80266 11.8244 7.89485 11.9067" stroke="#02283F" stroke-linecap="round"/>
<path d="M13.4926 6.05176L11.7943 7.7489" stroke="#02283F" stroke-linecap="round" stroke-linejoin="round"/>
</g>
<defs>
<clipPath id="clip0_5107_145000">
<rect width="16" height="16" fill="white"/>
</clipPath>
</defs>
</svg>
