<svg width="16" height="16" viewBox="0 0 16 16" fill="none" xmlns="http://www.w3.org/2000/svg">
<path d="M9.08 5.58762L10.3907 4.27629C10.2356 4.12127 10.1212 3.9304 10.0575 3.72059C9.99379 3.51079 9.98283 3.28851 10.0256 3.07346C10.0683 2.8584 10.1634 2.6572 10.3025 2.48768C10.4415 2.31817 10.6203 2.18556 10.8228 2.10161C11.0254 2.01765 11.2455 1.98495 11.4637 2.00639C11.6819 2.02783 11.8915 2.10275 12.0738 2.22452C12.2562 2.34629 12.4056 2.51115 12.5091 2.70449C12.6125 2.89783 12.6666 3.11369 12.6667 3.33295C12.886 3.3328 13.102 3.38674 13.2954 3.49001C13.4889 3.59328 13.6539 3.74268 13.7759 3.92497C13.8978 4.10727 13.9729 4.31683 13.9945 4.53508C14.0161 4.75333 13.9835 4.97354 13.8996 5.17618C13.8157 5.37883 13.6832 5.55766 13.5137 5.69682C13.3441 5.83598 13.1429 5.93118 12.9278 5.97398C12.7127 6.01678 12.4904 6.00586 12.2805 5.94219C12.0706 5.87852 11.8797 5.76406 11.7247 5.60895L10.5113 6.82295M5 10.6663L5.66667 11.333M3.936 12.397C5.758 14.2196 7.86933 15.0636 8.64933 14.283C9.43067 13.5016 8.58667 11.391 6.764 9.56895C4.942 7.74629 2.83067 6.90229 2.05067 7.68295C1.26933 8.46429 2.11333 10.575 3.936 12.397Z" stroke="#02283F" stroke-linecap="round" stroke-linejoin="round"/>
<path d="M8.65 14.2833C11.2533 11.6793 11.8867 8.09131 10.064 6.26931C8.242 4.44665 4.654 5.07998 2.05067 7.68331" stroke="#02283F" stroke-linecap="round" stroke-linejoin="round"/>
</svg>
