<svg width="16" height="16" viewBox="0 0 16 16" fill="none" xmlns="http://www.w3.org/2000/svg">
<g clip-path="url(#clip0_5107_184433)">
<path d="M1.5 10H1.96625C2.80687 10 3.51562 9.3125 3.5 8.47125C3.49247 8.07843 3.33112 7.70424 3.05062 7.42913C2.77013 7.15401 2.39289 6.99993 2 7H1.5V5.5H14.5V11.5C14.5 11.6326 14.4473 11.7598 14.3536 11.8536C14.2598 11.9473 14.1326 12 14 12H1.5V10Z" stroke="#02283F" stroke-linecap="round" stroke-linejoin="round"/>
<path d="M1.5 5.5L11.5 2.5C12.2956 2.5 13.0587 2.81607 13.6213 3.37868C14.1839 3.94129 14.5 4.70435 14.5 5.5" stroke="#02283F" stroke-linecap="round" stroke-linejoin="round"/>
<path d="M5 12V11.5C5 10.9696 5.21071 10.4609 5.58579 10.0858C5.96086 9.71071 6.46957 9.5 7 9.5C7.53043 9.5 8.03914 9.71071 8.41421 10.0858C8.78929 10.4609 9 10.9696 9 11.5V12" stroke="#02283F" stroke-linecap="round" stroke-linejoin="round"/>
<path d="M12.2325 5.5C12.4079 5.80405 12.5001 6.1489 12.5 6.4999C12.4999 6.85089 12.4074 7.19568 12.2318 7.49961C12.0563 7.80354 11.8038 8.05592 11.4998 8.23138C11.1958 8.40685 10.851 8.49922 10.5 8.49922C10.149 8.49922 9.80419 8.40685 9.50019 8.23138C9.1962 8.05592 8.94374 7.80354 8.76817 7.49961C8.59261 7.19568 8.50012 6.85089 8.5 6.4999C8.49988 6.1489 8.59214 5.80405 8.7675 5.5" stroke="#02283F" stroke-linecap="round" stroke-linejoin="round"/>
</g>
<defs>
<clipPath id="clip0_5107_184433">
<rect width="16" height="16" fill="white"/>
</clipPath>
</defs>
</svg>
