<svg width="16" height="16" viewBox="0 0 16 16" fill="none" xmlns="http://www.w3.org/2000/svg">
<path d="M10.6667 4.16699H5.33334M10.6667 4.16699C10.6667 4.16699 12.6667 5.83366 12.6667 7.50033V12.835C12.6663 13.3652 12.4554 13.8736 12.0804 14.2483C11.7054 14.6231 11.1969 14.8337 10.6667 14.8337H5.33334C4.22867 14.8337 3.33334 13.9397 3.33334 12.835V7.50033C3.33334 5.83366 5.33334 4.16699 5.33334 4.16699M10.6667 4.16699V2.16699H5.33334V4.16699M8 6.16699V12.8337M4 4.16699H12M8.77734 10.6637C8.56134 10.835 8.134 11.445 8.16 11.4823C8.186 11.5197 8.85667 11.1963 9.09334 11.057C9.33067 10.917 9.712 10.2603 9.69334 10.237C9.67534 10.213 8.976 10.5063 8.77734 10.6637ZM8.77734 8.01566C8.56134 8.18699 8.134 8.79699 8.16 8.83433C8.186 8.87166 8.85667 8.54833 9.09334 8.40899C9.33067 8.26899 9.712 7.61233 9.69334 7.58899C9.67534 7.56499 8.976 7.85833 8.77734 8.01566ZM7.22267 10.6637C7.43867 10.835 7.866 11.445 7.84 11.4823C7.814 11.5197 7.14334 11.1963 6.90667 11.057C6.66934 10.917 6.288 10.2603 6.30667 10.237C6.32467 10.213 7.024 10.5063 7.22267 10.6637ZM7.22267 8.01566C7.43867 8.18699 7.866 8.79699 7.84 8.83433C7.814 8.87166 7.14334 8.54833 6.90667 8.40899C6.66934 8.26899 6.288 7.61233 6.30667 7.58899C6.32467 7.56499 7.024 7.85833 7.22267 8.01566Z" stroke="#02283F" stroke-linecap="round" stroke-linejoin="round"/>
</svg>
