<svg width="32" height="20" viewBox="0 0 32 20" fill="none" xmlns="http://www.w3.org/2000/svg">
<path d="M17.4266 0.0371666C16.6755 0.155851 16.0048 0.663557 15.6762 1.3427C15.5286 1.65919 15.5018 1.79766 15.5018 2.33833C15.5018 2.87901 15.5286 3.01747 15.6829 3.34056L15.864 3.72299H13.5703C11.0084 3.72299 10.9748 3.72958 10.6596 4.18454C10.5121 4.39553 10.5054 4.45488 10.5054 5.98459C10.5054 7.46156 10.5121 7.58024 10.6462 7.81102C10.8273 8.1341 11.0956 8.27916 11.5851 8.31873L11.9808 8.35829L11.9942 13.3101L12.0144 18.2619L12.2022 18.6377C12.5643 19.363 13.2014 19.818 14.0398 19.9432C14.3416 19.9894 16.8364 20.0092 21.5713 19.996L28.6469 19.9762L29.0492 19.818C29.5925 19.6004 30.1424 19.0597 30.3638 18.5256L30.5247 18.13L30.5448 13.231L30.565 8.33851H30.8466C31.2289 8.33191 31.6447 8.1407 31.8392 7.87036C32.0002 7.64618 32.0002 7.63299 32.0002 6.01756C32.0002 4.47466 31.9935 4.38235 31.8593 4.20432C31.7856 4.10542 31.6179 3.95376 31.4972 3.86805C31.2759 3.72299 31.249 3.72299 28.9755 3.72299C27.7079 3.72299 26.6684 3.7098 26.6684 3.69661C26.6684 3.68343 26.7489 3.49881 26.8495 3.28781C27.0104 2.95813 27.0373 2.81307 27.0306 2.33174C27.0306 1.82403 27.0104 1.71194 26.8159 1.32951C26.3867 0.478937 25.6222 0.0173855 24.6564 0.0239792C23.9723 0.0239792 23.4961 0.202005 23.0267 0.617403C22.9194 0.709713 22.4834 1.32292 22.0609 1.97568C21.6317 2.62845 21.2762 3.16912 21.2695 3.18231C21.2561 3.1955 20.9208 2.68779 20.5117 2.0614C19.5325 0.564653 19.1033 0.162445 18.3387 0.0635395C18.1845 0.0371666 17.99 0.0107918 17.9162 0.00419807C17.8424 -0.00898933 17.6211 0.0107918 17.4266 0.0371666ZM18.3857 1.14489C18.5332 1.21083 18.721 1.33611 18.8015 1.42182C18.949 1.58666 20.2971 3.63068 20.2971 3.69661C20.2971 3.71639 19.6532 3.72299 18.8619 3.7098L17.4266 3.69002L17.1315 3.49221C16.4273 3.00429 16.2932 2.10756 16.8297 1.50094C17.2388 1.04599 17.8559 0.900927 18.3857 1.14489ZM25.2667 1.17126C26.105 1.60644 26.2392 2.72076 25.5283 3.35375C25.146 3.69661 24.9247 3.72958 23.4693 3.7098L22.1816 3.69002L22.8523 2.66801C23.5833 1.5471 23.8315 1.25039 24.1467 1.11192C24.4753 0.973457 24.9314 0.999832 25.2667 1.17126ZM18.8887 5.99778V7.28353H15.2H11.5114V5.99778V4.71203H15.2H18.8887V5.99778ZM22.5773 11.8331V18.9542H21.2695H19.9617V11.8331V4.71203H21.2695H22.5773V11.8331ZM30.9606 5.99778V7.28353H27.272H23.5833V5.99778V4.71203H27.272H30.9606V5.99778ZM18.8887 13.6464V18.9542H16.5078C13.9123 18.9542 13.8319 18.9476 13.4362 18.5718C13.0002 18.163 13.0204 18.4795 13.0002 13.165L12.9801 8.33851H15.9378H18.8887V13.6464ZM29.4852 13.1386V17.9454L29.3309 18.2355C29.2437 18.3937 29.0425 18.6113 28.8883 18.7234L28.5999 18.9212L26.0916 18.941L23.5833 18.9608V13.6464V8.33851H26.5343H29.4852V13.1386Z" fill="#02283F"/>
<path d="M4.48263 3.93149C2.85291 4.17545 1.47134 5.34911 0.988462 6.91179C0.69337 7.86127 0.760436 8.99537 1.15613 9.85913C1.33721 10.2548 1.33721 10.2679 1.20978 10.3405C0.907982 10.5053 0.364744 11.0921 0.197078 11.435C-0.0711883 11.9691 -0.0644816 12.5823 0.210491 13.09L0.41169 13.4526L0.217198 13.8153C-0.0644816 14.3296 -0.0711883 14.9362 0.197078 15.4769L0.384864 15.8593L0.197078 16.2351C-0.057775 16.7494 -0.0644816 17.389 0.176958 17.8704C0.63301 18.7935 1.96763 19.5715 3.59064 19.855C4.3552 19.9869 5.93126 19.9869 6.70923 19.8484C8.31883 19.5715 9.55956 18.8726 10.0693 17.9561C10.2436 17.6528 10.2705 17.5407 10.2705 17.0791C10.2705 16.6308 10.2436 16.4989 10.0827 16.2022L9.9016 15.8593L10.0827 15.5098C10.2369 15.2197 10.2705 15.0879 10.2705 14.6395C10.2705 14.1845 10.2436 14.0659 10.0827 13.7823L9.89489 13.4461L10.0827 13.123C10.2436 12.8394 10.2705 12.7208 10.2705 12.2658C10.2705 11.824 10.2369 11.6856 10.0894 11.4086C9.89489 11.046 9.59309 10.7031 9.21752 10.4262L8.97608 10.2482L9.12363 9.90529C9.48578 9.10746 9.58638 8.13161 9.3986 7.25466C9.07668 5.74473 7.7823 4.40623 6.2733 4.03039C5.75018 3.89852 4.97892 3.85896 4.48263 3.93149ZM5.97821 5.01284C7.56098 5.42164 8.64075 6.99751 8.41943 8.57998C8.21823 10.0372 7.05798 11.1713 5.54898 11.3888C5.07281 11.4614 4.9588 11.4548 4.42897 11.3229C3.71807 11.1515 3.23519 10.8745 2.75231 10.3668C1.98775 9.56242 1.67925 8.46129 1.92739 7.4195C2.18895 6.29859 3.16142 5.32933 4.33508 5.00625C4.7576 4.89415 5.50874 4.89415 5.97821 5.01284ZM2.2426 11.3493C3.43639 12.4768 5.53557 12.7603 7.07139 12.0021C7.31954 11.8768 7.70852 11.6262 7.94326 11.4416L8.35907 11.1053L8.54685 11.2372C8.84195 11.4416 9.08339 11.7185 9.19069 11.9757C9.4992 12.6944 8.56697 13.512 6.95067 13.934C6.38731 14.079 6.17941 14.0988 5.17341 14.1054C4.21436 14.1054 3.93939 14.0856 3.4498 13.9604C1.69937 13.5318 0.726903 12.635 1.14942 11.8438C1.25002 11.646 1.82679 11.1119 1.9341 11.1119C1.96763 11.1119 2.10847 11.2174 2.2426 11.3493ZM3.02728 14.9098C3.94609 15.1472 5.60264 15.2065 6.62205 15.0351C7.41343 14.9098 8.31883 14.6131 8.77488 14.3362C9.11021 14.1384 9.13704 14.145 9.23093 14.4812C9.42542 15.134 8.40601 15.978 7.03115 16.3275C6.75618 16.3934 6.21965 16.4791 5.83737 16.5187C3.20836 16.7626 0.559237 15.5296 1.1226 14.3296L1.18966 14.1779L1.77314 14.4549C2.09506 14.6131 2.65842 14.8175 3.02728 14.9098ZM2.96022 17.3033C3.64429 17.4747 4.48263 17.5736 5.19353 17.5736C6.40743 17.5736 7.93655 17.2308 8.74135 16.7758L9.0968 16.5714L9.1974 16.8022C9.46566 17.4352 8.72793 18.1868 7.40672 18.6154C5.44838 19.2484 3.06752 18.9979 1.66583 18.0088C1.16954 17.666 0.921396 17.0791 1.11589 16.7165C1.17625 16.5978 1.21649 16.611 1.80667 16.8813C2.14201 17.0396 2.66512 17.2308 2.96022 17.3033Z" fill="#02283F"/>
</svg>
