<svg width="31" height="32" viewBox="0 0 31 32" fill="none" xmlns="http://www.w3.org/2000/svg">
<path d="M3.875 9.64062H27.125" stroke="currentColor" stroke-linecap="round" stroke-linejoin="round"/>
<path d="M12.3607 14.8438H9.04102" stroke="currentColor" stroke-linecap="round" stroke-linejoin="round"/>
<path d="M11.625 22.6489H7.75C5.6099 22.6489 3.875 20.9017 3.875 18.7464V8.33997C3.875 6.18469 5.6099 4.4375 7.75 4.4375H23.25C25.3901 4.4375 27.125 6.18469 27.125 8.33997V13.5432" stroke="currentColor" stroke-linecap="round" stroke-linejoin="round"/>
<path d="M20.3418 24.2676L23.571 21.0156" stroke="currentColor" stroke-linecap="round" stroke-linejoin="round"/>
<path d="M28.4167 22.6447C28.4167 26.2368 25.5252 29.1487 21.9583 29.1487C18.3915 29.1487 15.5 26.2368 15.5 22.6447C15.5 19.0526 18.3915 16.1406 21.9583 16.1406C25.5194 16.1349 28.411 19.0375 28.4167 22.6238C28.4167 22.6308 28.4167 22.6377 28.4167 22.6447Z" stroke="currentColor" stroke-linecap="round" stroke-linejoin="round"/>
<path d="M20.0208 21.3477C20.3775 21.3477 20.6667 21.0565 20.6667 20.6973C20.6667 20.3381 20.3775 20.0469 20.0208 20.0469C19.6641 20.0469 19.375 20.3381 19.375 20.6973C19.375 21.0565 19.6641 21.3477 20.0208 21.3477Z" fill="currentColor" stroke="currentColor"/>
<path d="M23.8958 25.2461C24.2525 25.2461 24.5417 24.9549 24.5417 24.5957C24.5417 24.2365 24.2525 23.9453 23.8958 23.9453C23.5391 23.9453 23.25 24.2365 23.25 24.5957C23.25 24.9549 23.5391 25.2461 23.8958 25.2461Z" fill="currentColor" stroke="currentColor"/>
</svg>
