<svg width="32" height="32" viewBox="0 0 32 32" fill="none" xmlns="http://www.w3.org/2000/svg">
<rect x="0.5" y="0.5" width="30.891" height="30.9978" rx="7.5" stroke="currentColor"/>
<path d="M10.5981 24.1914L10.9593 24.4055C12.477 25.3062 14.2171 25.7826 15.9915 25.7835H15.9954C21.4448 25.7835 25.88 21.3493 25.8821 15.8995C25.8829 13.2583 24.8556 10.7751 22.9889 8.90675C21.1221 7.03872 18.6401 6.00924 15.9989 6.00814C10.5453 6.00814 6.11011 10.4416 6.10805 15.8914C6.10733 17.759 6.62975 19.5778 7.61959 21.1513L7.85486 21.5253L6.85583 25.1726L10.5981 24.1914ZM4 27.9978L5.68754 21.8358C4.64665 20.0324 4.09906 17.9866 4.09992 15.8909C4.10245 9.33425 9.43828 4 15.9956 4C19.1775 4.00137 22.1641 5.23973 24.41 7.48748C26.6556 9.73519 27.892 12.723 27.891 15.9005C27.8882 22.4568 22.5512 27.7921 15.9956 27.7921C15.9951 27.7921 15.9958 27.7921 15.9956 27.7921H15.9905C13.9997 27.7914 12.0436 27.292 10.3062 26.3444L4 27.9978Z" fill="currentColor"/>
<path d="M4.51034 15.8935C4.50962 17.9164 5.03822 19.8915 6.04331 21.6327L4.41406 27.5814L10.5016 25.9851C12.1789 26.8991 14.0673 27.3816 15.9892 27.3822H15.9941C22.3231 27.3822 27.4746 22.2321 27.4773 15.9025C27.4785 12.835 26.2851 9.95103 24.1169 7.78091C21.949 5.61111 19.0658 4.4155 15.9936 4.41406C9.6643 4.41406 4.51309 9.56347 4.51034 15.8935ZM15.9941 27.3822C15.9939 27.3822 15.994 27.3822 15.9941 27.3822V27.3822Z" fill="white"/>
<path d="M4.09992 15.8913C4.0992 17.9869 4.64678 20.033 5.68768 21.8362L4 27.9978L10.306 26.3444C12.0435 27.2919 13.9995 27.7912 15.9903 27.7921H15.9954C22.551 27.7921 27.888 22.4568 27.8908 15.9005C27.8918 12.7228 26.6555 9.73509 24.4098 7.48748C22.1638 5.23987 19.1774 4.00137 15.9954 4C9.43843 4 4.10246 9.33425 4.09972 15.8909M7.85499 21.5255L7.61959 21.1516C6.62976 19.5779 6.10734 17.7591 6.10806 15.8918C6.11022 10.4423 10.5453 6.00848 15.9989 6.00848C18.6399 6.00951 21.1219 7.03909 22.9889 8.90709C24.8557 10.7752 25.883 13.2586 25.8822 15.8995C25.8798 21.3493 21.4446 25.7835 15.9952 25.7835H15.9913C14.2169 25.7825 12.4767 25.3062 10.9591 24.4056L10.5979 24.1915L6.85568 25.1727L7.85499 21.5255ZM15.9954 27.7921C15.9952 27.7921 15.9953 27.7921 15.9954 27.7921V27.7921Z" fill="currentColor"/>
<path fill-rule="evenodd" clip-rule="evenodd" d="M13.0225 10.9268C12.7998 10.4318 12.5655 10.4219 12.3537 10.4131C12.1804 10.4058 11.9821 10.4063 11.7841 10.4063C11.5858 10.4063 11.2638 10.4806 10.9916 10.7781C10.719 11.0755 9.95117 11.7945 9.95117 13.2568C9.95117 14.7193 11.0164 16.1323 11.1648 16.3308C11.3134 16.529 13.221 19.6258 16.2419 20.8171C18.7527 21.8072 19.2636 21.6103 19.8086 21.5607C20.3535 21.5112 21.5671 20.8419 21.8147 20.1478C22.0624 19.4539 22.0624 18.859 21.9882 18.7348C21.9139 18.6109 21.7156 18.5365 21.4184 18.388C21.1211 18.2393 19.6599 17.5202 19.3875 17.421C19.115 17.322 18.9168 17.2725 18.7185 17.57C18.5204 17.8672 17.9512 18.5365 17.7777 18.7348C17.6044 18.9334 17.4309 18.9582 17.1337 18.8095C16.8364 18.6604 15.8791 18.3468 14.7435 17.3344C13.8599 16.5466 13.2634 15.5737 13.0899 15.2761C12.9166 14.9789 13.0714 14.8179 13.2204 14.6697C13.354 14.5365 13.5178 14.3227 13.6664 14.1492C13.8147 13.9756 13.8642 13.8518 13.9633 13.6535C14.0625 13.4551 14.0129 13.2816 13.9386 13.1329C13.8642 12.9842 13.2868 11.5145 13.0225 10.9268Z" fill="currentColor"/>
</svg>
