<svg width="16" height="16" viewBox="0 0 16 16" fill="none" xmlns="http://www.w3.org/2000/svg">
<g clip-path="url(#clip0_4268_2526)">
<path d="M8 14L13.585 8.33498C14.1711 7.74886 14.5004 6.9539 14.5004 6.12498C14.5004 5.29607 14.1711 4.50111 13.585 3.91498C12.9989 3.32886 12.2039 2.99957 11.375 2.99957C10.5461 2.99957 9.75113 3.32886 9.165 3.91498L8 4.99998L6.835 3.91498C6.24887 3.32886 5.45391 2.99957 4.625 2.99957C3.79609 2.99957 3.00113 3.32886 2.415 3.91498C1.82887 4.50111 1.49959 5.29607 1.49959 6.12498C1.49959 6.9539 1.82887 7.74886 2.415 8.33498L8 14Z" stroke="white" stroke-linecap="round" stroke-linejoin="round"/>
</g>
<defs>
<clipPath id="clip0_4268_2526">
<rect width="16" height="16" fill="white"/>
</clipPath>
</defs>
</svg>
