<svg width="32" height="32" viewBox="0 0 32 32" fill="none" xmlns="http://www.w3.org/2000/svg">
<rect x="0.5" y="0.5" width="31" height="31" rx="7.5" stroke="currentcolor"/>
<g clip-path="url(#clip0_4211_122742)">
<path d="M25.4575 6.45514C25.3413 6.3548 25.1999 6.28806 25.0486 6.26213C24.8973 6.23619 24.7417 6.25203 24.5987 6.30795L5.59937 13.7433C5.3301 13.848 5.10214 14.0373 4.9498 14.2828C4.79745 14.5283 4.72898 14.8166 4.75468 15.1043C4.78037 15.3921 4.89886 15.6637 5.09229 15.8783C5.28572 16.0929 5.54362 16.2389 5.82718 16.2942L10.75 17.2608V22.7498C10.749 23.0488 10.8379 23.3412 11.005 23.5891C11.1722 23.837 11.4099 24.029 11.6875 24.1401C11.9646 24.2533 12.2694 24.2805 12.5621 24.2181C12.8549 24.1557 13.1221 24.0067 13.3291 23.7905L15.7028 21.3286L19.4687 24.6248C19.7404 24.8658 20.0909 24.9992 20.4541 24.9998C20.6132 24.9997 20.7714 24.9747 20.9228 24.9258C21.1703 24.8472 21.3928 24.7053 21.5683 24.514C21.7438 24.3227 21.8662 24.0887 21.9231 23.8355L25.7284 7.28108C25.7625 7.13178 25.7552 6.97603 25.7075 6.83053C25.6598 6.68503 25.5734 6.55527 25.4575 6.45514ZM20.4559 23.4998L12.7047 16.703L23.8609 8.70702L20.4559 23.4998Z" fill="currentcolor"/>
</g>
<defs>
<clipPath id="clip0_4211_122742">
<rect width="24" height="24" fill="white" transform="translate(4 4)"/>
</clipPath>
</defs>
</svg>
