<svg width="42" height="12" viewBox="0 0 42 12" fill="none" xmlns="http://www.w3.org/2000/svg">
<g clip-path="url(#clip0_10410_363958)">
<mask id="mask0_10410_363958" style="mask-type:luminance" maskUnits="userSpaceOnUse" x="0" y="0" width="42" height="12">
<path d="M0 0.346191H42V11.6539H0V0.346191Z" fill="white"/>
</mask>
<g mask="url(#mask0_10410_363958)">
<path fill-rule="evenodd" clip-rule="evenodd" d="M3.83331 0.347746C4.20485 0.34613 5.30492 0.245976 5.77177 1.82098C6.08515 2.88067 6.58592 4.61559 7.27408 7.03059H7.55192C8.28854 4.48636 8.79577 2.74982 9.07038 1.82098C9.54046 0.229823 10.7181 0.34613 11.1898 0.34613H14.8244V11.6538H11.1203V4.99198H10.8715L8.80546 11.6554H6.01892L3.95285 4.98713H3.70569V11.6538H0V0.34613H3.83331V0.347746ZM20.1455 0.347746V7.01767H20.4411L22.953 1.53344C23.4408 0.441438 24.4795 0.347746 24.4795 0.347746H28.0657V11.6554H24.2825V4.98713H23.9868L21.525 10.4714C21.0372 11.5569 19.9484 11.6554 19.9484 11.6554H16.3622V0.347746H20.1455ZM41.139 5.72213C40.6108 7.21636 38.955 8.28736 37.1199 8.28736H33.1542V11.6554H29.5567V5.72213H41.139Z" fill="#0F754E"/>
<path fill-rule="evenodd" clip-rule="evenodd" d="M37.2944 0.347807H29.3677C29.5551 2.86458 31.7246 5.02111 33.9683 5.02111H41.3878C41.8175 2.92758 40.3442 0.346191 37.2944 0.346191V0.347807Z" fill="white"/>
<path fill-rule="evenodd" clip-rule="evenodd" d="M37.2944 0.347807H29.3677C29.5551 2.86458 31.7246 5.02111 33.9683 5.02111H41.3878C41.8175 2.92758 40.3442 0.346191 37.2944 0.346191V0.347807Z" fill="url(#paint0_linear_10410_363958)"/>
</g>
</g>
<defs>
<linearGradient id="paint0_linear_10410_363958" x1="29.0769" y1="0.344576" x2="42" y2="4.38304" gradientUnits="userSpaceOnUse">
<stop stop-color="#02AEFF"/>
<stop offset="1" stop-color="#1F5CD7"/>
</linearGradient>
<clipPath id="clip0_10410_363958">
<rect width="42" height="12" fill="white"/>
</clipPath>
</defs>
</svg>
