<svg width="32" height="32" viewBox="0 0 32 32" fill="none" xmlns="http://www.w3.org/2000/svg">
<path d="M4 7.33594V11.3359H8" stroke="currentColor" stroke-linecap="round" stroke-linejoin="round"/>
<path d="M4.06607 17.3319L4.05273 17.3186C4.78607 23.8919 10.7327 28.6119 17.3061 27.8653C23.8794 27.1186 28.5994 21.1719 27.8527 14.5986C27.1061 8.01192 21.1594 3.29195 14.5861 4.03861C10.2661 4.51861 6.5594 7.29195 4.8794 11.2919" stroke="currentColor" stroke-linecap="round" stroke-linejoin="round"/>
<path d="M13.332 18.6693L18.6654 13.3359" stroke="currentColor" stroke-linecap="round" stroke-linejoin="round"/>
<path d="M18.9993 18.8331C18.9993 18.913 18.9193 18.9995 18.8327 18.9995C18.7393 18.9995 18.666 18.9197 18.666 18.8331C18.666 18.74 18.7327 18.6668 18.8327 18.6668V18.6655C18.9127 18.6522 18.9927 18.732 18.9927 18.8252H18.9913" stroke="currentColor" stroke-linecap="round" stroke-linejoin="round"/>
<path d="M12.9997 13.1588C12.9864 13.0657 13.0664 12.9858 13.1597 12.9858C13.2397 12.9725 13.3197 13.0523 13.3197 13.1455C13.3197 13.2254 13.2397 13.3052 13.1464 13.3052V13.3038C13.0531 13.3038 12.9731 13.224 12.9731 13.1309C12.9597 13.1175 12.9597 13.1175 12.9717 13.1175" stroke="currentColor" stroke-linecap="round" stroke-linejoin="round"/>
</svg>
