<svg width="17" height="16" viewBox="0 0 17 16" fill="none" xmlns="http://www.w3.org/2000/svg">
<g clip-path="url(#clip0_6391_61757)">
<path d="M8.66663 1.5C7.38105 1.5 6.12434 1.88122 5.05542 2.59545C3.9865 3.30968 3.15338 4.32484 2.66141 5.51256C2.16944 6.70028 2.04072 8.00721 2.29152 9.26809C2.54233 10.529 3.16139 11.6872 4.07043 12.5962C4.97948 13.5052 6.13767 14.1243 7.39854 14.3751C8.65942 14.6259 9.96635 14.4972 11.1541 14.0052C12.3418 13.5132 13.357 12.6801 14.0712 11.6112C14.7854 10.5423 15.1666 9.28558 15.1666 8C15.1648 6.27665 14.4794 4.62441 13.2608 3.40582C12.0422 2.18722 10.39 1.50182 8.66663 1.5ZM8.66663 12C8.51829 12 8.37329 11.956 8.24995 11.8736C8.12661 11.7912 8.03048 11.6741 7.97372 11.537C7.91695 11.4 7.9021 11.2492 7.93104 11.1037C7.95998 10.9582 8.03141 10.8246 8.1363 10.7197C8.24119 10.6148 8.37483 10.5434 8.52031 10.5144C8.6658 10.4855 8.8166 10.5003 8.95364 10.5571C9.09069 10.6139 9.20782 10.71 9.29023 10.8333C9.37264 10.9567 9.41663 11.1017 9.41663 11.25C9.41663 11.4489 9.33761 11.6397 9.19696 11.7803C9.05631 11.921 8.86554 12 8.66663 12ZM9.16663 8.955V9C9.16663 9.13261 9.11395 9.25979 9.02018 9.35355C8.92641 9.44732 8.79924 9.5 8.66663 9.5C8.53402 9.5 8.40684 9.44732 8.31308 9.35355C8.21931 9.25979 8.16663 9.13261 8.16663 9V8.5C8.16663 8.36739 8.21931 8.24021 8.31308 8.14645C8.40684 8.05268 8.53402 8 8.66663 8C9.4935 8 10.1666 7.4375 10.1666 6.75C10.1666 6.0625 9.4935 5.5 8.66663 5.5C7.83975 5.5 7.16663 6.0625 7.16663 6.75V7C7.16663 7.13261 7.11395 7.25979 7.02018 7.35355C6.92641 7.44732 6.79924 7.5 6.66663 7.5C6.53402 7.5 6.40684 7.44732 6.31308 7.35355C6.21931 7.25979 6.16663 7.13261 6.16663 7V6.75C6.16663 5.50938 7.28788 4.5 8.66663 4.5C10.0454 4.5 11.1666 5.50938 11.1666 6.75C11.1666 7.83625 10.3066 8.74563 9.16663 8.955Z" fill="#83939E"/>
</g>
<defs>
<clipPath id="clip0_6391_61757">
<rect width="16" height="16" fill="white" transform="translate(0.666626)"/>
</clipPath>
</defs>
</svg>
