<svg width="16" height="16" viewBox="0 0 16 16" fill="none" xmlns="http://www.w3.org/2000/svg">
<path fill-rule="evenodd" clip-rule="evenodd" d="M8.00001 0.833313C8.13262 0.833313 8.25979 0.885991 8.35356 0.97976C8.44733 1.07353 8.50001 1.2007 8.50001 1.33331V2.79331L9.64668 1.64665C9.74146 1.55833 9.86682 1.51024 9.99636 1.51253C10.1259 1.51482 10.2495 1.56729 10.3411 1.6589C10.4327 1.75051 10.4852 1.8741 10.4875 2.00363C10.4897 2.13317 10.4417 2.25853 10.3533 2.35331L8.50001 4.20665V7.13398L11.0347 5.67065L11.7133 3.13865C11.7303 3.07522 11.7596 3.01576 11.7996 2.96365C11.8396 2.91155 11.8894 2.86784 11.9463 2.83499C12.0031 2.80215 12.0659 2.78083 12.131 2.77225C12.1961 2.76367 12.2622 2.768 12.3257 2.78498C12.3891 2.80196 12.4486 2.83128 12.5007 2.87124C12.5528 2.9112 12.5965 2.96104 12.6293 3.0179C12.6622 3.07476 12.6835 3.13753 12.6921 3.20263C12.7007 3.26773 12.6963 3.33388 12.6793 3.39731L12.2593 4.96398L13.5233 4.23398C13.6381 4.16872 13.7741 4.15151 13.9015 4.18611C14.0289 4.2207 14.1375 4.30429 14.2035 4.41863C14.2695 4.53298 14.2876 4.66879 14.2539 4.79644C14.2201 4.92409 14.1372 5.0332 14.0233 5.09998L12.76 5.82931L14.3267 6.24931C14.4548 6.2837 14.564 6.36757 14.6302 6.48247C14.6965 6.59737 14.7144 6.73388 14.68 6.86198C14.6456 6.99008 14.5618 7.09927 14.4469 7.16553C14.332 7.2318 14.1954 7.2497 14.0673 7.21531L11.5353 6.53665L9.00001 7.99998L11.5347 9.46331L14.0667 8.78465C14.1949 8.75034 14.3314 8.76837 14.4463 8.83476C14.5612 8.90115 14.645 9.01046 14.6793 9.13865C14.7136 9.26683 14.6956 9.4034 14.6292 9.51829C14.5628 9.63319 14.4535 9.71701 14.3253 9.75131L12.7593 10.1706L14.0233 10.9006C14.0807 10.9332 14.131 10.9768 14.1714 11.029C14.2118 11.0811 14.2415 11.1407 14.2587 11.2043C14.276 11.2679 14.2805 11.3344 14.272 11.3998C14.2635 11.4651 14.2422 11.5282 14.2092 11.5853C14.1763 11.6424 14.1323 11.6924 14.0799 11.7325C14.0276 11.7725 13.9678 11.8018 13.904 11.8187C13.8403 11.8356 13.7738 11.8396 13.7085 11.8307C13.6431 11.8218 13.5802 11.8 13.5233 11.7666L12.2593 11.0366L12.6793 12.6026C12.6963 12.6661 12.7007 12.7322 12.6921 12.7973C12.6835 12.8624 12.6622 12.9252 12.6293 12.9821C12.5965 13.0389 12.5528 13.0888 12.5007 13.1287C12.4486 13.1687 12.3891 13.198 12.3257 13.215C12.2622 13.232 12.1961 13.2363 12.131 13.2277C12.0659 13.2191 12.0031 13.1978 11.9463 13.165C11.8894 13.1321 11.8396 13.0884 11.7996 13.0363C11.7596 12.9842 11.7303 12.9247 11.7133 12.8613L11.0347 10.3293L8.50001 8.86665V11.7933L10.3533 13.6466C10.4011 13.6927 10.4392 13.7479 10.4655 13.8089C10.4917 13.8699 10.5055 13.9355 10.5061 14.0019C10.5067 14.0683 10.4941 14.1341 10.469 14.1956C10.4439 14.257 10.4068 14.3129 10.3599 14.3598C10.3129 14.4068 10.2571 14.444 10.1957 14.4691C10.1343 14.4943 10.0684 14.507 10.002 14.5064C9.93566 14.5059 9.87004 14.4921 9.80902 14.466C9.74801 14.4398 9.69282 14.4017 9.64668 14.354L8.50001 13.2073V14.6666C8.50001 14.7993 8.44733 14.9264 8.35356 15.0202C8.25979 15.114 8.13262 15.1666 8.00001 15.1666C7.8674 15.1666 7.74022 15.114 7.64645 15.0202C7.55269 14.9264 7.50001 14.7993 7.50001 14.6666V13.2066L6.35334 14.3533C6.25856 14.4416 6.13319 14.4897 6.00366 14.4874C5.87413 14.4851 5.75054 14.4327 5.65893 14.3411C5.56732 14.2495 5.51484 14.1259 5.51256 13.9963C5.51027 13.8668 5.55835 13.7414 5.64667 13.6466L7.50001 11.7933V8.86598L4.96534 10.3293L4.28667 12.8613C4.26969 12.9247 4.24038 12.9842 4.20041 13.0363C4.16045 13.0884 4.11061 13.1321 4.05375 13.165C3.99689 13.1978 3.93412 13.2191 3.86902 13.2277C3.80392 13.2363 3.73777 13.232 3.67434 13.215C3.61091 13.198 3.55145 13.1687 3.49935 13.1287C3.44725 13.0888 3.40353 13.0389 3.37069 12.9821C3.33785 12.9252 3.31653 12.8624 3.30795 12.7973C3.29937 12.7322 3.30369 12.6661 3.32067 12.6026L3.74067 11.036L2.47667 11.7666C2.36175 11.8329 2.22519 11.8509 2.09704 11.8165C1.96889 11.7821 1.85964 11.6982 1.79334 11.5833C1.72704 11.4684 1.7091 11.3318 1.74348 11.2037C1.77787 11.0755 1.86175 10.9663 1.97667 10.9L3.24067 10.1706L1.67401 9.75065C1.6089 9.73521 1.54756 9.70686 1.49361 9.66729C1.43967 9.62771 1.39421 9.57771 1.35994 9.52024C1.32567 9.46278 1.30328 9.39902 1.2941 9.33275C1.28492 9.26647 1.28913 9.19903 1.30649 9.13441C1.32385 9.0698 1.354 9.00932 1.39516 8.95657C1.43631 8.90382 1.48764 8.85986 1.54609 8.82731C1.60455 8.79475 1.66894 8.77426 1.73546 8.76705C1.80198 8.75984 1.86927 8.76605 1.93334 8.78531L4.46534 9.46331L7.00001 7.99998L4.46534 6.53665L1.93334 7.21531C1.86987 7.2323 1.80367 7.23661 1.73853 7.22801C1.67339 7.21942 1.61058 7.19807 1.55369 7.1652C1.4968 7.13233 1.44694 7.08857 1.40696 7.03643C1.36698 6.98429 1.33766 6.92478 1.32067 6.86131C1.30369 6.79784 1.29937 6.73164 1.30797 6.6665C1.31657 6.60136 1.33791 6.53856 1.37079 6.48166C1.40366 6.42477 1.44741 6.37491 1.49956 6.33493C1.5517 6.29495 1.6112 6.26563 1.67467 6.24865L3.24067 5.82931L1.97667 5.09998C1.91977 5.06715 1.86989 5.02343 1.82987 4.97132C1.78986 4.91921 1.76051 4.85974 1.74348 4.79628C1.72646 4.73283 1.7221 4.66664 1.73066 4.60151C1.73921 4.53637 1.76051 4.47355 1.79334 4.41665C1.82617 4.35974 1.86989 4.30986 1.922 4.26985C1.97411 4.22984 2.03358 4.20048 2.09704 4.18346C2.22519 4.14907 2.36175 4.16701 2.47667 4.23331L3.74001 4.96398L3.32001 3.39798C3.28571 3.26979 3.30373 3.13323 3.37012 3.01833C3.43651 2.90343 3.54582 2.81961 3.67401 2.78531C3.8022 2.75101 3.93876 2.76904 4.05366 2.83543C4.16855 2.90181 4.25237 3.01112 4.28667 3.13931L4.96467 5.67131L7.50001 7.13331V4.20665L5.64667 2.35331C5.55835 2.25853 5.51027 2.13317 5.51256 2.00363C5.51484 1.8741 5.56732 1.75051 5.65893 1.6589C5.75054 1.56729 5.87413 1.51482 6.00366 1.51253C6.13319 1.51024 6.25856 1.55833 6.35334 1.64665L7.50001 2.79331V1.33331C7.50001 1.2007 7.55269 1.07353 7.64645 0.97976C7.74022 0.885991 7.8674 0.833313 8.00001 0.833313Z" fill="white"/>
</svg>
