<svg width="32" height="32" viewBox="0 0 32 32" fill="none" xmlns="http://www.w3.org/2000/svg">
<rect width="32" height="32" rx="8" fill="#A39874"/>
<g clip-path="url(#clip0_4115_157269)">
<path d="M23.5 7.75H8.5C8.08579 7.75 7.75 8.08579 7.75 8.5V23.5C7.75 23.9142 8.08579 24.25 8.5 24.25H23.5C23.9142 24.25 24.25 23.9142 24.25 23.5V8.5C24.25 8.08579 23.9142 7.75 23.5 7.75Z" stroke="white" stroke-linecap="round" stroke-linejoin="round"/>
<path d="M20.5 6.25V9.25" stroke="white" stroke-linecap="round" stroke-linejoin="round"/>
<path d="M11.5 6.25V9.25" stroke="white" stroke-linecap="round" stroke-linejoin="round"/>
<path d="M7.75 12.25H24.25" stroke="white" stroke-linecap="round" stroke-linejoin="round"/>
<path d="M16 17.5C16.6213 17.5 17.125 16.9963 17.125 16.375C17.125 15.7537 16.6213 15.25 16 15.25C15.3787 15.25 14.875 15.7537 14.875 16.375C14.875 16.9963 15.3787 17.5 16 17.5Z" fill="white"/>
<path d="M20.125 17.5C20.7463 17.5 21.25 16.9963 21.25 16.375C21.25 15.7537 20.7463 15.25 20.125 15.25C19.5037 15.25 19 15.7537 19 16.375C19 16.9963 19.5037 17.5 20.125 17.5Z" fill="white"/>
<path d="M11.875 21.25C12.4963 21.25 13 20.7463 13 20.125C13 19.5037 12.4963 19 11.875 19C11.2537 19 10.75 19.5037 10.75 20.125C10.75 20.7463 11.2537 21.25 11.875 21.25Z" fill="white"/>
<path d="M16 21.25C16.6213 21.25 17.125 20.7463 17.125 20.125C17.125 19.5037 16.6213 19 16 19C15.3787 19 14.875 19.5037 14.875 20.125C14.875 20.7463 15.3787 21.25 16 21.25Z" fill="white"/>
<path d="M20.125 21.25C20.7463 21.25 21.25 20.7463 21.25 20.125C21.25 19.5037 20.7463 19 20.125 19C19.5037 19 19 19.5037 19 20.125C19 20.7463 19.5037 21.25 20.125 21.25Z" fill="white"/>
</g>
<defs>
<clipPath id="clip0_4115_157269">
<rect width="24" height="24" fill="white" transform="translate(4 4)"/>
</clipPath>
</defs>
</svg>
