<svg width="16" height="16" viewBox="0 0 16 16" fill="none" xmlns="http://www.w3.org/2000/svg">
<path d="M10.6673 4.16663H5.33398M10.6673 4.16663C10.6673 4.16663 12.6673 5.83329 12.6673 7.49996V12.8346C12.667 13.3648 12.4561 13.8732 12.0811 14.248C11.706 14.6228 11.1975 14.8333 10.6673 14.8333H5.33398C4.22932 14.8333 3.33398 13.9393 3.33398 12.8346V7.49996C3.33398 5.83329 5.33398 4.16663 5.33398 4.16663M10.6673 4.16663V2.16663H5.33398V4.16663M8.00065 6.16663V12.8333M4.00065 4.16663H12.0007M8.77798 10.6633C8.56198 10.8346 8.13465 11.4446 8.16065 11.482C8.18665 11.5193 8.85732 11.196 9.09398 11.0566C9.33132 10.9166 9.71265 10.26 9.69398 10.2366C9.67598 10.2126 8.97665 10.506 8.77798 10.6633ZM8.77798 8.01529C8.56198 8.18663 8.13465 8.79663 8.16065 8.83396C8.18665 8.87129 8.85732 8.54796 9.09398 8.40863C9.33132 8.26863 9.71265 7.61196 9.69398 7.58863C9.67598 7.56463 8.97665 7.85796 8.77798 8.01529ZM7.22332 10.6633C7.43932 10.8346 7.86665 11.4446 7.84065 11.482C7.81465 11.5193 7.14398 11.196 6.90732 11.0566C6.66998 10.9166 6.28865 10.26 6.30732 10.2366C6.32532 10.2126 7.02465 10.506 7.22332 10.6633ZM7.22332 8.01529C7.43932 8.18663 7.86665 8.79663 7.84065 8.83396C7.81465 8.87129 7.14398 8.54796 6.90732 8.40863C6.66998 8.26863 6.28865 7.61196 6.30732 7.58863C6.32532 7.56463 7.02465 7.85796 7.22332 8.01529Z" stroke="#02283F" stroke-linecap="round" stroke-linejoin="round"/>
</svg>
