<svg width="32" height="32" viewBox="0 0 32 32" fill="none" xmlns="http://www.w3.org/2000/svg">
<rect x="0.5" y="0.5" width="31" height="31" rx="7.5" stroke="currentcolor"/>
<g clip-path="url(#clip0_4211_122747)">
<path d="M28 16.1286V15.8714C22.6857 15.7 20.26 15.5714 18.3143 13.6857C16.4286 11.74 16.2914 9.31429 16.1286 4H15.8714C15.7 9.31429 15.5714 11.74 13.6857 13.6857C11.74 15.5714 9.31429 15.7086 4 15.8714V16.1286C9.31429 16.3 11.74 16.4286 13.6857 18.3143C15.5714 20.26 15.7086 22.6857 15.8714 28H16.1286C16.3 22.6857 16.4286 20.26 18.3143 18.3143C20.26 16.4286 22.6857 16.2914 28 16.1286Z" fill="currentcolor"/>
</g>
<defs>
<clipPath id="clip0_4211_122747">
<rect width="24" height="24" fill="white" transform="translate(4 4)"/>
</clipPath>
</defs>
</svg>
