<svg width="32" height="32" viewBox="0 0 32 32" fill="none" xmlns="http://www.w3.org/2000/svg">
<rect x="0.5" y="0.5" width="31" height="31" rx="7.5" stroke="currentColor"/>
<path d="M24.8295 6.34715C24.2312 5.81179 21.8378 4.04824 16.4527 4.01675C16.4527 4.01675 10.1228 3.63884 7.03656 6.47312C5.3045 8.20518 4.70615 10.6931 4.64316 13.8108C4.58018 16.9285 4.48571 22.7545 10.1228 24.3606V26.7854C10.1228 26.7854 10.0913 27.7617 10.7211 27.9507C11.5084 28.2026 11.9493 27.4468 12.7051 26.6595C13.1145 26.2186 13.6814 25.5888 14.0908 25.0849C17.9328 25.3998 20.893 24.6755 21.2394 24.5495C22.0267 24.2976 26.4041 23.7307 27.1284 17.9047C27.8843 11.8583 26.8135 8.04772 24.8295 6.34715ZM25.4909 17.4323C24.8925 22.3136 21.3339 22.6285 20.6726 22.8175C20.3892 22.9119 17.8068 23.5418 14.5317 23.3528C14.5317 23.3528 12.1068 26.2816 11.3195 27.0689C11.1935 27.1948 11.0675 27.2263 10.9731 27.2263C10.8471 27.1948 10.8156 27.0374 10.8156 26.8169C10.8156 26.502 10.8471 22.786 10.8471 22.786C6.0918 21.4633 6.37522 16.4876 6.40672 13.8737C6.4697 11.2599 6.94209 9.14994 8.39072 7.70131C11.0046 5.33941 16.3897 5.68582 16.3897 5.68582C20.9245 5.71731 23.0975 7.07147 23.6013 7.54385C25.2389 8.99248 26.0892 12.4251 25.4909 17.4323Z" fill="currentColor"/>
<path d="M18.6567 13.6865C18.5937 12.4897 17.9953 11.8599 16.8301 11.7969" stroke="currentColor" stroke-linecap="round" stroke-linejoin="round"/>
<path d="M20.2325 14.1874C20.264 13.0851 19.9176 12.1403 19.2563 11.416C18.5634 10.6601 17.6186 10.2507 16.4219 10.1562" stroke="currentColor" stroke-linecap="round" stroke-linejoin="round"/>
<path d="M21.806 14.8213C21.806 12.9003 21.2076 11.3886 20.0738 10.2863C18.9401 9.18406 17.5229 8.61719 15.8223 8.61719" stroke="currentColor" stroke-linecap="round" stroke-linejoin="round"/>
<path d="M16.8933 17.7496C16.8933 17.7496 17.3342 17.7811 17.5546 17.4976L17.9955 16.9308C18.216 16.6474 18.7198 16.4584 19.2552 16.7418C19.5386 16.8993 20.0425 17.2142 20.3574 17.4662C20.7038 17.7181 21.3967 18.2849 21.3967 18.2849C21.7431 18.5684 21.8061 18.9778 21.5856 19.4187C21.3652 19.8281 21.0503 20.206 20.6409 20.5524C20.3259 20.8358 20.011 20.9618 19.6961 21.0248H19.5701C19.4442 21.0248 19.2867 20.9933 19.1607 20.9618C18.6883 20.8358 17.9011 20.4894 16.5469 19.7651C15.6966 19.2927 14.9723 18.7888 14.374 18.3164C14.059 18.0645 13.7126 17.7811 13.3977 17.4347L13.2717 17.3087C12.9253 16.9623 12.6419 16.6474 12.39 16.3325C11.9176 15.7341 11.4137 15.0098 10.9413 14.1595C10.217 12.8368 9.8706 12.0495 9.74463 11.5457C9.71314 11.4197 9.68164 11.2937 9.68164 11.1363V11.0103C9.71313 10.6954 9.87059 10.3805 10.154 10.0655C10.5004 9.68763 10.8783 9.37271 11.2877 9.12078C11.7286 8.90034 12.138 8.96332 12.4214 9.30973C12.4214 9.30973 12.9883 10.0026 13.2402 10.349C13.4607 10.6639 13.7756 11.1678 13.9646 11.4512C14.248 11.9551 14.059 12.4904 13.8071 12.7109L13.2402 13.1518C12.9568 13.3722 12.9883 13.8131 12.9883 13.8131C12.9883 13.8131 13.7756 16.9308 16.8933 17.7496Z" fill="currentColor"/>
</svg>
