<svg width="33" height="32" viewBox="0 0 33 32" fill="none" xmlns="http://www.w3.org/2000/svg">
    <path d="M3.46997 16.0003C3.46997 8.63633 9.43797 2.66699 16.8033 2.66699C24.166 2.66699 30.1366 8.63633 30.1366 16.0003C30.1366 23.3643 24.166 29.3337 16.8033 29.3337C9.43797 29.3337 3.46997 23.3643 3.46997 16.0003Z" fill="#FC3F1D"/>
    <path d="M18.51 10.2214H17.278C15.0194 10.2214 13.8314 11.3654 13.8314 13.0521C13.8314 14.9587 14.6527 15.8521 16.3394 16.9974L17.7327 17.9361L13.7287 23.9187H10.7367L14.33 18.5667C12.2634 17.0854 11.1034 15.6467 11.1034 13.2134C11.1034 10.1627 13.23 8.08008 17.2634 8.08008H21.2674V23.9041H18.51V10.2214Z" fill="white"/>
</svg>
