<svg width="16" height="16" viewBox="0 0 16 16" fill="none" xmlns="http://www.w3.org/2000/svg">
<g clip-path="url(#clip0_4958_62932)">
<path d="M9.75 5.5C10.1642 5.5 10.5 5.16421 10.5 4.75C10.5 4.33579 10.1642 4 9.75 4C9.33579 4 9 4.33579 9 4.75C9 5.16421 9.33579 5.5 9.75 5.5Z" fill="#02283F"/>
<path d="M0.5 10.9919L4.00437 11.9956L5.00437 15.5L6.50437 11.9956C16.1569 11.7662 13.75 2.41748 13.6875 2.31248C13.5794 2.24998 4.23438 -0.153771 4 9.49373L0.5 10.9919Z" stroke="#02283F" stroke-linecap="round" stroke-linejoin="round"/>
<path d="M11.6139 10.4763C11.2035 10.5311 10.786 10.4925 10.3926 10.3634C9.99912 10.2342 9.63993 10.0179 9.34178 9.73061C9.04363 9.44327 8.81421 9.09232 8.67065 8.70393C8.52709 8.31553 8.47308 7.89974 8.51267 7.48756C8.10067 7.52709 7.68507 7.47312 7.29683 7.32966C6.9086 7.1862 6.55775 6.95696 6.27045 6.65903C5.98315 6.36109 5.76681 6.00215 5.63755 5.60896C5.50829 5.21577 5.46945 4.79847 5.52392 4.38818" stroke="#02283F" stroke-linecap="round" stroke-linejoin="round"/>
</g>
<defs>
<clipPath id="clip0_4958_62932">
<rect width="16" height="16" fill="white"/>
</clipPath>
</defs>
</svg>
