<svg width="16" height="16" viewBox="0 0 16 16" fill="none" xmlns="http://www.w3.org/2000/svg">
<g clip-path="url(#clip0_4958_75949)">
<path d="M2.56445 2.56681V4.35196M7.77931 2.56681V4.35196M5.17245 1.23767V3.02281" stroke="#02283F" stroke-linecap="round" stroke-linejoin="round"/>
<path d="M13.1543 5.2594C13.1543 5.54886 13.2693 5.82647 13.474 6.03115C13.6787 6.23584 13.9563 6.35083 14.2457 6.35083C14.5352 6.35083 14.8128 6.23584 15.0175 6.03115C15.2222 5.82647 15.3372 5.54886 15.3372 5.2594C15.3372 4.96993 15.2222 4.69232 15.0175 4.48764C14.8128 4.28296 14.5352 4.16797 14.2457 4.16797C13.9563 4.16797 13.6787 4.28296 13.474 4.48764C13.2693 4.69232 13.1543 4.96993 13.1543 5.2594Z" stroke="#02283F" stroke-linecap="round"/>
<path d="M12.3902 9.91659L12.6324 10.0229C14.3239 10.8229 14.7913 11.8583 14.7913 13.28V13.6206C14.7913 13.9237 14.6709 14.2144 14.4566 14.4287C14.2422 14.643 13.9516 14.7634 13.6484 14.7634H1.87473C1.50102 14.7634 1.15016 14.5794 1.00616 14.2343C0.689589 13.4697 0.321589 11.9337 1.27816 10.0229C2.66102 7.26173 6.0633 6.65487 8.24273 7.79773L8.34559 7.8503" stroke="#02283F" stroke-linecap="round" stroke-linejoin="round"/>
<path d="M11.6097 11.4354C12.6703 10.272 12.7251 8.59538 11.7331 7.69253C10.7411 6.78967 9.07827 7.0011 8.01884 8.16453C7.05541 9.22167 6.9217 10.7005 7.64741 11.6388C7.72055 11.7356 7.80322 11.8251 7.89541 11.9074" stroke="#02283F" stroke-linecap="round"/>
<path d="M13.4932 6.05249L11.7949 7.74963" stroke="#02283F" stroke-linecap="round" stroke-linejoin="round"/>
</g>
<defs>
<clipPath id="clip0_4958_75949">
<rect width="16" height="16" fill="white"/>
</clipPath>
</defs>
</svg>
