<svg width="20" height="20" viewBox="0 0 20 20" fill="none" xmlns="http://www.w3.org/2000/svg">
<path fill-rule="evenodd" clip-rule="evenodd" d="M9.78543 15.7857H10.9808C10.9808 15.7857 11.3419 15.745 11.5264 15.542C11.6961 15.3553 11.6907 15.005 11.6907 15.005C11.6907 15.005 11.6673 13.3649 12.4116 13.1234C13.1457 12.8853 14.0881 14.7085 15.0869 15.4096C15.8422 15.94 16.4162 15.8239 16.4162 15.8239L19.0871 15.7857C19.0871 15.7857 20.4842 15.6976 19.8217 14.5743C19.7675 14.4826 19.4358 13.7435 17.8358 12.2249C16.1609 10.6354 16.3854 10.8926 18.4028 8.14328C19.6313 6.46894 20.1224 5.44681 19.969 5.00905C19.8228 4.59196 18.9191 4.70214 18.9191 4.70214L15.9118 4.72115C15.9118 4.72115 15.6887 4.69011 15.5235 4.79122C15.3619 4.89009 15.2581 5.1211 15.2581 5.1211C15.2581 5.1211 14.782 6.41666 14.1474 7.51865C12.8083 9.84361 12.2728 9.96668 12.0539 9.82208C11.5447 9.48557 11.6719 8.4705 11.6719 7.74916C11.6719 5.49592 12.0062 4.55646 11.0211 4.31328C10.6942 4.23262 10.4534 4.17926 9.61739 4.17055C8.5443 4.15939 7.63629 4.17393 7.12203 4.43152C6.7799 4.60284 6.51594 4.9845 6.6768 5.00646C6.87561 5.03353 7.32564 5.13068 7.56424 5.46265C7.8725 5.89148 7.86173 6.85413 7.86173 6.85413C7.86173 6.85413 8.03885 9.50653 7.44818 9.83591C7.04287 10.0619 6.48679 9.60057 5.29292 7.49121C4.68133 6.41075 4.2194 5.2163 4.2194 5.2163C4.2194 5.2163 4.13045 4.99314 3.97157 4.87367C3.77888 4.72893 3.50964 4.68306 3.50964 4.68306L0.651875 4.70214C0.651875 4.70214 0.222976 4.71438 0.0653612 4.90514C-0.0748581 5.07494 0.0541643 5.42571 0.0541643 5.42571C0.0541643 5.42571 2.29133 10.7777 4.82472 13.4749C7.14788 15.948 9.78543 15.7857 9.78543 15.7857Z" fill="currentColor"/>
</svg>
