<svg width="17" height="16" viewBox="0 0 17 16" fill="none" xmlns="http://www.w3.org/2000/svg">
<g clip-path="url(#clip0_6391_2237)">
<path d="M1.8334 8.00039C1.83472 6.80733 2.30926 5.6635 3.15288 4.81988C3.99651 3.97625 5.14033 3.50172 6.3334 3.50039H12.3334V2.50039C12.3333 2.40145 12.3626 2.3047 12.4175 2.2224C12.4725 2.14011 12.5506 2.07596 12.642 2.03808C12.7334 2.00021 12.834 1.9903 12.9311 2.00963C13.0281 2.02895 13.1172 2.07664 13.1872 2.14664L14.6872 3.64664C14.7336 3.69308 14.7705 3.74822 14.7957 3.80892C14.8208 3.86962 14.8338 3.93469 14.8338 4.00039C14.8338 4.0661 14.8208 4.13117 14.7957 4.19186C14.7705 4.25256 14.7336 4.30771 14.6872 4.35414L13.1872 5.85414C13.1172 5.92415 13.0281 5.97183 12.9311 5.99116C12.834 6.01048 12.7334 6.00058 12.642 5.96271C12.5506 5.92483 12.4725 5.86068 12.4175 5.77838C12.3626 5.69609 12.3333 5.59934 12.3334 5.50039V4.50039H6.3334C5.40545 4.50139 4.51579 4.87045 3.85962 5.52662C3.20346 6.18278 2.83439 7.07244 2.8334 8.00039C2.8334 8.133 2.78072 8.26018 2.68695 8.35395C2.59319 8.44772 2.46601 8.50039 2.3334 8.50039C2.20079 8.50039 2.07362 8.44772 1.97985 8.35395C1.88608 8.26018 1.8334 8.133 1.8334 8.00039ZM14.3334 7.50039C14.2008 7.50039 14.0736 7.55307 13.9798 7.64684C13.8861 7.74061 13.8334 7.86779 13.8334 8.00039C13.8324 8.92835 13.4633 9.81801 12.8072 10.4742C12.151 11.1303 11.2614 11.4994 10.3334 11.5004H4.3334V10.5004C4.33348 10.4014 4.3042 10.3047 4.24926 10.2224C4.19433 10.1401 4.11621 10.076 4.0248 10.0381C3.93338 10.0002 3.83279 9.9903 3.73575 10.0096C3.63871 10.029 3.54958 10.0766 3.47965 10.1466L1.97965 11.6466C1.93316 11.6931 1.89628 11.7482 1.87112 11.8089C1.84596 11.8696 1.83301 11.9347 1.83301 12.0004C1.83301 12.0661 1.84596 12.1312 1.87112 12.1919C1.89628 12.2526 1.93316 12.3077 1.97965 12.3541L3.47965 13.8541C3.54958 13.9241 3.63871 13.9718 3.73575 13.9912C3.83279 14.0105 3.93338 14.0006 4.0248 13.9627C4.11621 13.9248 4.19433 13.8607 4.24926 13.7784C4.3042 13.6961 4.33348 13.5993 4.3334 13.5004V12.5004H10.3334C11.5265 12.4991 12.6703 12.0245 13.5139 11.1809C14.3575 10.3373 14.8321 9.19346 14.8334 8.00039C14.8334 7.86779 14.7807 7.74061 14.687 7.64684C14.5932 7.55307 14.466 7.50039 14.3334 7.50039Z" fill="#83939E"/>
</g>
<defs>
<clipPath id="clip0_6391_2237">
<rect width="16" height="16" fill="white" transform="translate(0.333374)"/>
</clipPath>
</defs>
</svg>
