<svg width="32" height="32" viewBox="0 0 32 32" fill="none" xmlns="http://www.w3.org/2000/svg">
<rect x="0.5" y="0.5" width="31" height="31" rx="7.5" stroke="currentcolor"/>
<path fill-rule="evenodd" clip-rule="evenodd" d="M15.7425 22.9413H17.177C17.177 22.9413 17.6102 22.8925 17.8317 22.6488C18.0353 22.4248 18.0288 22.0045 18.0288 22.0045C18.0288 22.0045 18.0008 20.0363 18.894 19.7465C19.7748 19.4608 20.9057 21.6486 22.1042 22.4899C23.0106 23.1264 23.6994 22.9871 23.6994 22.9871L26.9045 22.9413C26.9045 22.9413 28.5811 22.8355 27.7861 21.4876C27.721 21.3775 27.3229 20.4906 25.4029 18.6683C23.393 16.761 23.6625 17.0696 26.0833 13.7704C27.5576 11.7612 28.1469 10.5346 27.9628 10.0093C27.7873 9.50879 26.7029 9.641 26.7029 9.641L23.0942 9.66382C23.0942 9.66382 22.8265 9.62657 22.6282 9.7479C22.4342 9.86654 22.3098 10.1438 22.3098 10.1438C22.3098 10.1438 21.7384 11.6984 20.9769 13.0208C19.37 15.8108 18.7274 15.9585 18.4647 15.7849C17.8536 15.3811 18.0063 14.163 18.0063 13.2974C18.0063 10.5935 18.4074 9.46619 17.2253 9.17437C16.8331 9.07759 16.5441 9.01355 15.5409 9.0031C14.2532 8.9897 13.1635 9.00716 12.5464 9.31626C12.1359 9.52184 11.8191 9.97983 12.0122 10.0062C12.2507 10.0387 12.7908 10.1553 13.0771 10.5536C13.447 11.0682 13.4341 12.2234 13.4341 12.2234C13.4341 12.2234 13.6466 15.4063 12.9378 15.8015C12.4514 16.0727 11.7841 15.5191 10.3515 12.9879C9.6176 11.6913 9.06328 10.258 9.06328 10.258C9.06328 10.258 8.95654 9.9902 8.76589 9.84684C8.53466 9.67315 8.21157 9.6181 8.21157 9.6181L4.78225 9.641C4.78225 9.641 4.26757 9.65569 4.07843 9.8846C3.91017 10.0884 4.065 10.5093 4.065 10.5093C4.065 10.5093 6.7496 16.9317 9.78966 20.1683C12.5775 23.1361 15.7425 22.9413 15.7425 22.9413Z" fill="currentcolor"/>
</svg>
