<svg width="20" height="20" viewBox="0 0 20 20" fill="none" xmlns="http://www.w3.org/2000/svg">
<path d="M8.32515 18.9517C8.15848 18.9517 8.02515 18.9184 7.92515 18.8767C7.59181 18.7517 7.02515 18.3434 7.02515 17.0517V11.6767H5.07515C3.95848 11.6767 3.55848 11.1517 3.41681 10.8434C3.27515 10.5267 3.15015 9.88502 3.88348 9.04335L10.1918 1.87669C11.0418 0.910019 11.7335 0.976686 12.0668 1.10169C12.4001 1.22669 12.9668 1.63502 12.9668 2.92669V8.30169H14.9168C16.0335 8.30169 16.4335 8.82669 16.5751 9.13502C16.7168 9.45169 16.8418 10.0934 16.1085 10.935L9.80015 18.1017C9.20848 18.7767 8.69181 18.9517 8.32515 18.9517ZM11.6085 2.27669C11.5835 2.31002 11.4085 2.39335 11.1335 2.71002L4.82515 9.87669C4.59181 10.1434 4.55848 10.31 4.55848 10.3434C4.57515 10.3517 4.72515 10.435 5.07515 10.435H7.65015C7.99181 10.435 8.27515 10.7184 8.27515 11.06V17.06C8.27515 17.4767 8.35015 17.66 8.38348 17.71C8.40848 17.6767 8.58348 17.5934 8.85848 17.2767L15.1668 10.11C15.4001 9.84335 15.4335 9.67669 15.4335 9.64335C15.4168 9.63502 15.2668 9.55169 14.9168 9.55169H12.3418C12.0001 9.55169 11.7168 9.26835 11.7168 8.92669V2.92669C11.7251 2.51002 11.6418 2.33502 11.6085 2.27669Z" fill="#EBBA1A"/>
</svg>
