<svg width="16" height="16" viewBox="0 0 16 16" fill="none" xmlns="http://www.w3.org/2000/svg">
<g clip-path="url(#clip0_6378_78309)">
<path d="M8 14.0004L13.585 8.33541C14.1711 7.74928 14.5004 6.95432 14.5004 6.12541C14.5004 5.2965 14.1711 4.50154 13.585 3.91541C12.9989 3.32928 12.2039 3 11.375 3C10.5461 3 9.75113 3.32928 9.165 3.91541L8 5.00041L6.835 3.91541C6.24887 3.32928 5.45391 3 4.625 3C3.79609 3 3.00113 3.32928 2.415 3.91541C1.82887 4.50154 1.49959 5.2965 1.49959 6.12541C1.49959 6.95432 1.82887 7.74928 2.415 8.33541L8 14.0004Z" fill="currentColor"/>
</g>
<defs>
<clipPath id="clip0_6378_78309">
<rect width="16" height="16" fill="white"/>
</clipPath>
</defs>
</svg>
