<svg width="16" height="16" viewBox="0 0 16 16" fill="none" xmlns="http://www.w3.org/2000/svg">
<path d="M5.99935 10L3.99935 14.6667M9.99935 10L11.9993 14.6667M7.99935 10V14.6667M7.99935 10C9.12352 10.0011 10.2104 9.59712 11.0611 8.86217C11.9117 8.12722 12.4692 7.11045 12.6313 5.99804C12.6733 5.70804 12.694 5.56337 12.594 5.44804C12.494 5.33271 12.3327 5.33337 12.01 5.33337H3.98868C3.66602 5.33337 3.50468 5.33337 3.40468 5.44804C3.30468 5.56337 3.32535 5.70804 3.36735 5.99804C3.52939 7.11051 4.0868 8.12735 4.93748 8.86233C5.78815 9.5973 6.87514 10.0012 7.99935 10ZM10.37 4.00004C10.4633 3.91584 10.5379 3.813 10.589 3.69816C10.64 3.58332 10.6664 3.45905 10.6664 3.33337C10.6664 3.2077 10.64 3.08342 10.589 2.96859C10.5379 2.85375 10.4633 2.7509 10.37 2.66671C10.2767 2.58251 10.2021 2.47967 10.1511 2.36483C10.1 2.24999 10.0736 2.12571 10.0736 2.00004C10.0736 1.87437 10.1 1.75009 10.1511 1.63525C10.2021 1.52042 10.2767 1.41757 10.37 1.33337M7.99935 4.00004C8.09265 3.91584 8.16724 3.813 8.21829 3.69816C8.26934 3.58332 8.29572 3.45905 8.29572 3.33337C8.29572 3.2077 8.26934 3.08342 8.21829 2.96859C8.16724 2.85375 8.09265 2.7509 7.99935 2.66671C7.90605 2.58251 7.83146 2.47967 7.78041 2.36483C7.72936 2.24999 7.70298 2.12571 7.70298 2.00004C7.70298 1.87437 7.72936 1.75009 7.78041 1.63525C7.83146 1.52042 7.90605 1.41757 7.99935 1.33337M5.62868 4.00004C5.72198 3.91584 5.79657 3.813 5.84762 3.69816C5.89867 3.58332 5.92505 3.45905 5.92505 3.33337C5.92505 3.2077 5.89867 3.08342 5.84762 2.96859C5.79657 2.85375 5.72198 2.7509 5.62868 2.66671C5.53538 2.58251 5.4608 2.47967 5.40974 2.36483C5.35869 2.24999 5.33231 2.12571 5.33231 2.00004C5.33231 1.87437 5.35869 1.75009 5.40974 1.63525C5.4608 1.52042 5.53538 1.41757 5.62868 1.33337M4.99935 12.6667H10.9993M12.666 6.66671H13.3327M3.33268 6.66671H2.66602" stroke="#02283F" stroke-linecap="round" stroke-linejoin="round"/>
</svg>
