<svg width="16" height="16" viewBox="0 0 16 16" fill="none" xmlns="http://www.w3.org/2000/svg">
    <path d="M6.79297 5.59851L6.9083 5.65629C6.9083 5.65629 8.77541 6.45073 10.6759 5.82429C10.6759 5.82429 12.477 5.27429 13.4025 7.04651C14.0039 8.19873 13.5521 8.94429 13.1621 9.3254C12.9214 9.56029 12.7932 9.88695 12.8363 10.2205L12.9396 11.0192L12.8552 13.4627C12.8512 13.5778 12.8026 13.6868 12.7198 13.7668C12.637 13.8468 12.5263 13.8916 12.4112 13.8916H12.2823C12.2196 13.8916 12.1576 13.8783 12.1004 13.8526C12.0432 13.827 11.9921 13.7895 11.9504 13.7426C11.9087 13.6958 11.8774 13.6406 11.8585 13.5808C11.8397 13.521 11.8337 13.4579 11.841 13.3956L11.8925 12.1934C11.9085 11.8147 11.8059 11.4404 11.5992 11.1227L10.8245 9.93451C10.8245 9.93451 10.1965 8.78851 10.709 7.97873" stroke="currentColor" stroke-width="0.8" stroke-linecap="round" stroke-linejoin="round"/>
    <path d="M8.01989 10.2505C8.80456 10.3522 10.0703 10.4538 10.6097 10.1482M14.0092 6.43558C14.0092 6.43558 14.7199 6.46602 14.753 7.50491M4.347 4.04935C4.347 4.04935 4.95833 3.74113 5.02456 4.35735C5.05767 4.66535 4.87367 4.80069 4.725 4.92358C4.505 5.10513 3.97367 4.92869 3.66944 4.80358C3.559 4.75846 3.44033 4.8558 3.46656 4.97202C3.54478 5.3178 3.81411 5.79735 4.40367 5.88891C5.83411 6.11113 6.85878 4.15891 5.48722 3.24224C3.99389 2.2438 3.32256 3.8378 3.32256 3.8378L2.71456 4.15891L2.46656 4.49491C2.46656 4.49491 1.11189 4.85802 1.55633 5.59269L1.94522 6.09269L2.87767 6.18046C2.99963 6.19201 3.11317 6.24775 3.19691 6.33718C3.28065 6.4266 3.32881 6.54356 3.33233 6.66602L3.56078 7.67558L4.37056 9.40158C4.48261 9.64021 4.68361 9.8255 4.93056 9.9178L5.55256 10.1498C5.65389 10.4114 5.71856 10.622 5.71856 10.622L5.457 13.0794C5.45039 13.1413 5.4569 13.204 5.47608 13.2633C5.49527 13.3226 5.52672 13.3772 5.56838 13.4236C5.61004 13.4699 5.66099 13.507 5.71791 13.5324C5.77483 13.5578 5.83645 13.5709 5.89878 13.5709H6.06389C6.16729 13.5709 6.26747 13.5349 6.34717 13.4691C6.42687 13.4032 6.48112 13.3116 6.50056 13.21L7.11611 9.9958C7.13167 9.91446 7.13544 9.83135 7.12722 9.74913L7.00744 8.52869" stroke="currentColor" stroke-width="0.8" stroke-linecap="round" stroke-linejoin="round"/>
</svg>
