<svg width="16" height="16" viewBox="0 0 16 16" fill="none" xmlns="http://www.w3.org/2000/svg">
<g clip-path="url(#clip0_6378_78314)">
<path d="M13.5 3H2.5C2.23479 3 1.98043 3.10536 1.7929 3.29289C1.60536 3.48043 1.5 3.73478 1.5 4V14C1.49885 14.1907 1.55279 14.3777 1.65535 14.5384C1.75791 14.6992 1.90472 14.8269 2.07813 14.9062C2.21027 14.9678 2.35424 14.9998 2.5 15C2.73476 14.9994 2.96172 14.9157 3.14063 14.7638L3.14625 14.7594L5.1875 13H13.5C13.7652 13 14.0196 12.8946 14.2071 12.7071C14.3946 12.5196 14.5 12.2652 14.5 12V4C14.5 3.73478 14.3946 3.48043 14.2071 3.29289C14.0196 3.10536 13.7652 3 13.5 3ZM10 9.5H6C5.86739 9.5 5.74022 9.44732 5.64645 9.35355C5.55268 9.25979 5.5 9.13261 5.5 9C5.5 8.86739 5.55268 8.74021 5.64645 8.64645C5.74022 8.55268 5.86739 8.5 6 8.5H10C10.1326 8.5 10.2598 8.55268 10.3536 8.64645C10.4473 8.74021 10.5 8.86739 10.5 9C10.5 9.13261 10.4473 9.25979 10.3536 9.35355C10.2598 9.44732 10.1326 9.5 10 9.5ZM10 7.5H6C5.86739 7.5 5.74022 7.44732 5.64645 7.35355C5.55268 7.25979 5.5 7.13261 5.5 7C5.5 6.86739 5.55268 6.74021 5.64645 6.64645C5.74022 6.55268 5.86739 6.5 6 6.5H10C10.1326 6.5 10.2598 6.55268 10.3536 6.64645C10.4473 6.74021 10.5 6.86739 10.5 7C10.5 7.13261 10.4473 7.25979 10.3536 7.35355C10.2598 7.44732 10.1326 7.5 10 7.5Z" fill="currentColor"/>
</g>
<defs>
<clipPath id="clip0_6378_78314">
<rect width="16" height="16" fill="white"/>
</clipPath>
</defs>
</svg>
