<svg width="16" height="16" viewBox="0 0 16 16" fill="none" xmlns="http://www.w3.org/2000/svg">
<g clip-path="url(#clip0_6378_78330)">
<path d="M13.5 8.13601C13.5025 8.04601 13.5025 7.95601 13.5 7.866L14.4325 6.701C14.4814 6.63984 14.5152 6.56804 14.5313 6.4914C14.5474 6.41475 14.5452 6.33541 14.525 6.25976C14.3719 5.68522 14.1432 5.13354 13.845 4.61913C13.8059 4.55183 13.7517 4.49458 13.6866 4.45194C13.6215 4.40929 13.5473 4.38244 13.47 4.37351L11.9875 4.20851C11.9258 4.14351 11.8633 4.08101 11.8 4.02101L11.625 2.53476C11.616 2.45739 11.589 2.38319 11.5463 2.31809C11.5035 2.25298 11.4462 2.19876 11.3787 2.15976C10.8644 1.86179 10.3127 1.63354 9.73812 1.48101C9.66247 1.46079 9.58312 1.45863 9.50648 1.4747C9.42984 1.49077 9.35804 1.52461 9.29687 1.57351L8.135 2.50101C8.045 2.50101 7.955 2.50101 7.865 2.50101L6.7 1.57038C6.63883 1.52149 6.56703 1.48764 6.49039 1.47157C6.41375 1.45551 6.3344 1.45767 6.25875 1.47788C5.68422 1.63102 5.13253 1.85968 4.61812 2.15788C4.55082 2.19696 4.49357 2.25121 4.45093 2.31631C4.40829 2.38141 4.38143 2.45557 4.3725 2.53288L4.2075 4.01788C4.1425 4.07996 4.08 4.14246 4.02 4.20538L2.53375 4.37601C2.45638 4.38501 2.38219 4.41196 2.31708 4.45471C2.25197 4.49746 2.19775 4.55484 2.15875 4.62226C1.86084 5.13673 1.63239 5.68841 1.47937 6.26288C1.45925 6.33858 1.45719 6.41796 1.47336 6.4946C1.48954 6.57124 1.5235 6.64302 1.5725 6.70413L2.5 7.866C2.5 7.95601 2.5 8.04601 2.5 8.13601L1.56937 9.30101C1.52048 9.36217 1.48663 9.43397 1.47057 9.51061C1.4545 9.58726 1.45666 9.6666 1.47687 9.74226C1.63001 10.3168 1.85867 10.8685 2.15687 11.3829C2.19595 11.4502 2.2502 11.5074 2.3153 11.5501C2.38041 11.5927 2.45456 11.6196 2.53187 11.6285L4.01437 11.7935C4.07646 11.8585 4.13896 11.921 4.20187 11.981L4.375 13.4673C4.384 13.5446 4.41095 13.6188 4.4537 13.6839C4.49646 13.749 4.55383 13.8032 4.62125 13.8423C5.13573 14.1402 5.6874 14.3686 6.26187 14.5216C6.33758 14.5418 6.41695 14.5438 6.49359 14.5276C6.57024 14.5115 6.64201 14.4775 6.70312 14.4285L7.865 13.501C7.955 13.5035 8.045 13.5035 8.135 13.501L9.3 14.4335C9.36117 14.4824 9.43296 14.5162 9.50961 14.5323C9.58625 14.5484 9.66559 14.5462 9.74125 14.526C10.3159 14.3731 10.8676 14.1445 11.3819 13.846C11.4492 13.8069 11.5064 13.7527 11.5491 13.6876C11.5917 13.6225 11.6186 13.5483 11.6275 13.471L11.7925 11.9885C11.8575 11.9268 11.92 11.8643 11.98 11.801L13.4662 11.626C13.5436 11.617 13.6178 11.5901 13.6829 11.5473C13.748 11.5045 13.8022 11.4472 13.8412 11.3798C14.1392 10.8653 14.3676 10.3136 14.5206 9.73913C14.5408 9.66343 14.5428 9.58405 14.5266 9.50741C14.5105 9.43077 14.4765 9.35899 14.4275 9.29788L13.5 8.13601ZM8 10.501C7.50554 10.501 7.0222 10.3544 6.61107 10.0797C6.19995 9.80498 5.87952 9.41453 5.6903 8.95771C5.50108 8.5009 5.45157 7.99823 5.54803 7.51328C5.6445 7.02833 5.8826 6.58287 6.23223 6.23324C6.58186 5.88361 7.02732 5.6455 7.51227 5.54904C7.99722 5.45258 8.49989 5.50209 8.95671 5.69131C9.41352 5.88053 9.80397 6.20096 10.0787 6.61208C10.3534 7.0232 10.5 7.50655 10.5 8.00101C10.5 8.66405 10.2366 9.29993 9.76777 9.76877C9.29892 10.2376 8.66304 10.501 8 10.501Z" fill="currentColor"/>
</g>
<defs>
<clipPath id="clip0_6378_78330">
<rect width="16" height="16" fill="white"/>
</clipPath>
</defs>
</svg>
