<svg width="16" height="16" viewBox="0 0 16 16" fill="none" xmlns="http://www.w3.org/2000/svg">
<g clip-path="url(#clip0_4268_2519)">
<path d="M13.25 6.5C13.9404 6.5 14.5 5.94036 14.5 5.25C14.5 4.55964 13.9404 4 13.25 4C12.5596 4 12 4.55964 12 5.25C12 5.94036 12.5596 6.5 13.25 6.5Z" stroke="white" stroke-linecap="round" stroke-linejoin="round"/>
<path d="M7.5 10V5.5" stroke="white" stroke-linecap="round" stroke-linejoin="round"/>
<path d="M7.5 13C8.32843 13 9 12.3284 9 11.5C9 10.6716 8.32843 10 7.5 10C6.67157 10 6 10.6716 6 11.5C6 12.3284 6.67157 13 7.5 13Z" stroke="white" stroke-linecap="round" stroke-linejoin="round"/>
<path d="M5.5 3C5.5 2.46957 5.71071 1.96086 6.08579 1.58579C6.46086 1.21071 6.96957 1 7.5 1C8.03043 1 8.53914 1.21071 8.91421 1.58579C9.28929 1.96086 9.5 2.46957 9.5 3V8.625C10.1115 9.05079 10.5711 9.66062 10.812 10.3657C11.0529 11.0708 11.0625 11.8344 10.8394 12.5454C10.6163 13.2563 10.172 13.8775 9.57143 14.3185C8.97081 14.7595 8.24513 14.9973 7.5 14.9973C6.75487 14.9973 6.02919 14.7595 5.42857 14.3185C4.82795 13.8775 4.38375 13.2563 4.16061 12.5454C3.93748 11.8344 3.94706 11.0708 4.18796 10.3657C4.42886 9.66062 4.88851 9.05079 5.5 8.625V3Z" stroke="white" stroke-linecap="round" stroke-linejoin="round"/>
</g>
<defs>
<clipPath id="clip0_4268_2519">
<rect width="16" height="16" fill="white"/>
</clipPath>
</defs>
</svg>
