<svg width="16" height="16" viewBox="0 0 16 16" fill="none" xmlns="http://www.w3.org/2000/svg">
<path d="M9.08049 5.58798L10.3912 4.27665C10.2361 4.12163 10.1217 3.93077 10.058 3.72096C9.99429 3.51115 9.98333 3.28888 10.0261 3.07382C10.0688 2.85877 10.1639 2.65757 10.303 2.48805C10.442 2.31853 10.6208 2.18592 10.8233 2.10197C11.0259 2.01802 11.246 1.98532 11.4642 2.00676C11.6824 2.0282 11.892 2.10312 12.0743 2.22489C12.2566 2.34666 12.4061 2.51151 12.5096 2.70485C12.613 2.8982 12.6671 3.11406 12.6672 3.33332C12.8865 3.33316 13.1024 3.38711 13.2959 3.49038C13.4894 3.59364 13.6544 3.74304 13.7764 3.92534C13.8983 4.10763 13.9734 4.31719 13.995 4.53544C14.0166 4.7537 13.984 4.9739 13.9001 5.17655C13.8162 5.37919 13.6837 5.55802 13.5141 5.69718C13.3446 5.83635 13.1434 5.93155 12.9283 5.97435C12.7132 6.01715 12.4909 6.00623 12.281 5.94256C12.0711 5.87888 11.8802 5.76442 11.7252 5.60932L10.5118 6.82332M5.0005 10.6667L5.66716 11.3333M3.9365 12.3973C5.7585 14.22 7.86983 15.064 8.64983 14.2833C9.43116 13.502 8.58716 11.3913 6.7645 9.56932C4.9425 7.74665 2.83116 6.90265 2.05116 7.68332C1.26983 8.46465 2.11383 10.5753 3.9365 12.3973Z" stroke="#02283F" stroke-linecap="round" stroke-linejoin="round"/>
<path d="M8.65011 14.2833C11.2534 11.6793 11.8868 8.09131 10.0641 6.26931C8.24211 4.44665 4.65411 5.07998 2.05078 7.68331" stroke="#02283F" stroke-linecap="round" stroke-linejoin="round"/>
</svg>
