<svg width="32" height="32" viewBox="0 0 32 32" fill="none" xmlns="http://www.w3.org/2000/svg">
<rect x="0.5" y="0.5" width="31" height="31" rx="7.5" stroke="currentcolor"/>
<g clip-path="url(#clip0_4211_122737)">
<path d="M6.25 16.0001C6.25 18.8041 6.53781 20.4485 6.75719 21.2941C6.8152 21.5242 6.92694 21.7371 7.08322 21.9156C7.23951 22.094 7.43589 22.2329 7.65625 22.3207C10.7987 23.5329 16 23.5001 16 23.5001C16 23.5001 21.2013 23.5329 24.3438 22.3207C24.5648 22.2334 24.7619 22.0947 24.9189 21.9163C25.0759 21.7378 25.1882 21.5246 25.2466 21.2941C25.4659 20.4504 25.7537 18.8041 25.7537 16.0001C25.7537 13.196 25.4659 11.5516 25.2466 10.706C25.1888 10.4748 25.0768 10.2606 24.9198 10.0813C24.7628 9.90192 24.5653 9.76257 24.3438 9.67477C21.2013 8.46727 16 8.50009 16 8.50009C16 8.50009 10.7987 8.46727 7.65625 9.67946C7.43466 9.76726 7.23718 9.9066 7.08017 10.0859C6.92317 10.2653 6.81116 10.4795 6.75344 10.7107C6.53781 11.5507 6.25 13.196 6.25 16.0001Z" fill="currentcolor"/>
<path d="M19 16L14.5 13V19L19 16Z" fill="#E7EAEC" stroke="#E7EAEC" stroke-width="2" stroke-linecap="round" stroke-linejoin="round"/>
</g>
<defs>
<clipPath id="clip0_4211_122737">
<rect width="24" height="24" fill="white" transform="translate(4 4)"/>
</clipPath>
</defs>
</svg>
