<svg width="32" height="32" viewBox="0 0 32 32" fill="none" xmlns="http://www.w3.org/2000/svg">
<rect width="32" height="32" rx="8" fill="#A39874"/>
<g clip-path="url(#clip0_4539_185124)">
<path d="M21.25 11.5H25.2419C25.3913 11.4999 25.5374 11.5445 25.6613 11.628C25.7853 11.7116 25.8815 11.8302 25.9375 11.9688L27.25 15.25" stroke="white" stroke-linecap="round" stroke-linejoin="round"/>
<path d="M6.25 17.5H21.25" stroke="white" stroke-linecap="round" stroke-linejoin="round"/>
<path d="M22 24.25C23.2426 24.25 24.25 23.2426 24.25 22C24.25 20.7574 23.2426 19.75 22 19.75C20.7574 19.75 19.75 20.7574 19.75 22C19.75 23.2426 20.7574 24.25 22 24.25Z" stroke="white" stroke-linecap="round" stroke-linejoin="round"/>
<path d="M11.5 24.25C12.7426 24.25 13.75 23.2426 13.75 22C13.75 20.7574 12.7426 19.75 11.5 19.75C10.2574 19.75 9.25 20.7574 9.25 22C9.25 23.2426 10.2574 24.25 11.5 24.25Z" stroke="white" stroke-linecap="round" stroke-linejoin="round"/>
<path d="M19.75 22H13.75" stroke="white" stroke-linecap="round" stroke-linejoin="round"/>
<path d="M21.25 15.25H27.25V21.25C27.25 21.4489 27.171 21.6397 27.0303 21.7803C26.8897 21.921 26.6989 22 26.5 22H24.25" stroke="white" stroke-linecap="round" stroke-linejoin="round"/>
<path d="M9.25 22H7C6.80109 22 6.61032 21.921 6.46967 21.7803C6.32902 21.6397 6.25 21.4489 6.25 21.25V10.75C6.25 10.5511 6.32902 10.3603 6.46967 10.2197C6.61032 10.079 6.80109 10 7 10H21.25V19.8784" stroke="white" stroke-linecap="round" stroke-linejoin="round"/>
</g>
<defs>
<clipPath id="clip0_4539_185124">
<rect width="24" height="24" fill="white" transform="translate(4 4)"/>
</clipPath>
</defs>
</svg>
