<svg width="20" height="20" viewBox="0 0 20 20" fill="none" xmlns="http://www.w3.org/2000/svg">
    <g clip-path="url(#clip0_3601_24736)">
        <path d="M10 17.5C14.1421 17.5 17.5 14.1421 17.5 10C17.5 5.85786 14.1421 2.5 10 2.5C5.85786 2.5 2.5 5.85786 2.5 10C2.5 14.1421 5.85786 17.5 10 17.5Z" stroke="#02283F" stroke-linecap="round" stroke-linejoin="round"/>
        <path d="M5.9281 9.62974L6.96873 7.81255C7.02366 7.7174 7.1027 7.63842 7.19789 7.58355C7.29308 7.52869 7.40105 7.49989 7.51091 7.50005H8.81638C8.92193 7.50022 9.02576 7.47332 9.11794 7.42192L10.0781 6.8938C10.1203 6.87107 10.1595 6.84297 10.1945 6.81021L12.2976 4.90942C12.4023 4.81425 12.4715 4.6864 12.4941 4.54676C12.5167 4.40712 12.4912 4.26396 12.4219 4.14067L11.6015 2.67114" stroke="#02283F" stroke-linecap="round" stroke-linejoin="round"/>
        <path d="M5.2953 4.15857L4.37499 6.33435C4.31282 6.48164 4.30947 6.64716 4.36561 6.79685L5.26405 9.19294C5.30096 9.29084 5.36187 9.37791 5.44117 9.44616C5.52048 9.51441 5.61565 9.56166 5.71796 9.58357L7.39217 9.94373C7.48503 9.96364 7.57213 10.0045 7.64686 10.0631C7.72158 10.1217 7.78197 10.1966 7.82342 10.282L8.1203 10.8969C8.17151 11.0025 8.25143 11.0915 8.35091 11.1539C8.45039 11.2162 8.56541 11.2492 8.6828 11.2492H9.76092" stroke="#02283F" stroke-linecap="round" stroke-linejoin="round"/>
        <path d="M16.6476 13.4751L12.5555 10.9579C12.481 10.9125 12.3981 10.883 12.3117 10.8712L10.5289 10.6305C10.395 10.6124 10.2588 10.6382 10.1408 10.7039C10.0228 10.7697 9.92922 10.872 9.8742 10.9954L8.80389 13.3969C8.75414 13.5087 8.73829 13.6326 8.75829 13.7533C8.77828 13.8739 8.83326 13.9861 8.91639 14.0758L10.4586 15.6641C10.5254 15.736 10.5744 15.8226 10.6016 15.9169C10.6287 16.0113 10.6332 16.1107 10.6148 16.2071L10.3672 17.4915" stroke="#02283F" stroke-linecap="round" stroke-linejoin="round"/>
    </g>
    <defs>
        <clipPath id="clip0_3601_24736">
            <rect width="20" height="20" fill="white"/>
        </clipPath>
    </defs>
</svg>
