<svg width="39" height="32" viewBox="0 0 39 32" fill="none" xmlns="http://www.w3.org/2000/svg">
<path d="M9.50794 27.5218V25.9536C9.50794 25.3525 9.14125 24.9604 8.51268 24.9604C8.19839 24.9604 7.85791 25.065 7.62219 25.4048C7.43884 25.1173 7.17693 24.9604 6.78405 24.9604C6.52214 24.9604 6.26022 25.0388 6.05069 25.3264V25.0127H5.50067V27.5218H6.05069V26.1366C6.05069 25.6923 6.28641 25.4832 6.6531 25.4832C7.01978 25.4832 7.20312 25.7184 7.20312 26.1366V27.5218H7.75314V26.1366C7.75314 25.6923 8.01505 25.4832 8.35555 25.4832C8.72226 25.4832 8.90556 25.7184 8.90556 26.1366V27.5218H9.50794ZM17.6535 25.0127H16.763V24.2547H16.213V25.0127H15.7154V25.5093H16.213V26.6594C16.213 27.2344 16.4488 27.5741 17.0773 27.5741C17.313 27.5741 17.575 27.4957 17.7583 27.3912L17.6012 26.9207C17.444 27.0253 17.2607 27.0514 17.1297 27.0514C16.8678 27.0514 16.763 26.8946 16.763 26.6332V25.5093H17.6535V25.0127ZM22.3156 24.9604C22.0013 24.9604 21.7918 25.1173 21.6608 25.3264V25.0127H21.1109V27.5218H21.6608V26.1105C21.6608 25.6923 21.8442 25.457 22.1847 25.457C22.2894 25.457 22.4204 25.4832 22.5252 25.5093L22.6823 24.9866C22.5776 24.9604 22.4204 24.9604 22.3156 24.9604ZM15.2701 25.2218C15.0082 25.0388 14.6415 24.9604 14.2486 24.9604C13.6201 24.9604 13.201 25.2741 13.201 25.7707C13.201 26.1889 13.5153 26.4241 14.0653 26.5025L14.3272 26.5287C14.6153 26.5809 14.7725 26.6594 14.7725 26.79C14.7725 26.973 14.5629 27.1037 14.1962 27.1037C13.8296 27.1037 13.5415 26.973 13.3582 26.8423L13.0962 27.2605C13.3843 27.4696 13.7772 27.5741 14.17 27.5741C14.9034 27.5741 15.3225 27.2344 15.3225 26.7639C15.3225 26.3196 14.982 26.0843 14.4581 26.0059L14.1962 25.9798C13.9606 25.9537 13.7772 25.9014 13.7772 25.7445C13.7772 25.5616 13.9606 25.457 14.2486 25.457C14.5629 25.457 14.8772 25.5877 15.0344 25.6661L15.2701 25.2218ZM29.885 24.9604C29.5707 24.9604 29.3611 25.1173 29.2302 25.3264V25.0127H28.6802V27.5218H29.2302V26.1105C29.2302 25.6923 29.4135 25.457 29.754 25.457C29.8588 25.457 29.9898 25.4832 30.0945 25.5093L30.2517 24.9866C30.1469 24.9604 29.9898 24.9604 29.885 24.9604ZM22.8657 26.2673C22.8657 27.0253 23.3895 27.5741 24.2014 27.5741C24.5681 27.5741 24.83 27.4957 25.0919 27.2866L24.83 26.8423C24.6205 26.9991 24.4109 27.0775 24.1752 27.0775C23.73 27.0775 23.4157 26.7639 23.4157 26.2673C23.4157 25.7968 23.73 25.4832 24.1752 25.457C24.4109 25.457 24.6205 25.5355 24.83 25.6923L25.0919 25.2479C24.83 25.0388 24.5681 24.9604 24.2014 24.9604C23.3895 24.9604 22.8657 25.5093 22.8657 26.2673ZM27.9468 26.2673V25.0127H27.3968V25.3264C27.2134 25.0911 26.9515 24.9604 26.611 24.9604C25.9039 24.9604 25.3539 25.5093 25.3539 26.2673C25.3539 27.0253 25.9039 27.5741 26.611 27.5741C26.9777 27.5741 27.2396 27.4434 27.3968 27.2082V27.5218H27.9468V26.2673ZM25.9301 26.2673C25.9301 25.823 26.2182 25.457 26.6896 25.457C27.1349 25.457 27.4492 25.7968 27.4492 26.2673C27.4492 26.7116 27.1349 27.0775 26.6896 27.0775C26.2182 27.0514 25.9301 26.7116 25.9301 26.2673ZM19.356 24.9604C18.6227 24.9604 18.0988 25.4832 18.0988 26.2673C18.0988 27.0514 18.6227 27.5741 19.3822 27.5741C19.7489 27.5741 20.1155 27.4696 20.4037 27.2344L20.1417 26.8423C19.9322 26.9991 19.6703 27.1037 19.4083 27.1037C19.0679 27.1037 18.7274 26.9469 18.6489 26.5025H20.5084V26.2934C20.5346 25.4832 20.0632 24.9604 19.356 24.9604ZM19.356 25.4309C19.6965 25.4309 19.9322 25.64 19.9846 26.0321H18.6751C18.7274 25.6923 18.9631 25.4309 19.356 25.4309ZM33.0018 26.2673V24.0195H32.4518V25.3264C32.2684 25.0911 32.0065 24.9604 31.666 24.9604C30.9589 24.9604 30.4088 25.5093 30.4088 26.2673C30.4088 27.0253 30.9589 27.5741 31.666 27.5741C32.0327 27.5741 32.2946 27.4434 32.4518 27.2082V27.5218H33.0018V26.2673ZM30.9851 26.2673C30.9851 25.823 31.2732 25.457 31.7446 25.457C32.1898 25.457 32.5042 25.7968 32.5042 26.2673C32.5042 26.7116 32.1898 27.0775 31.7446 27.0775C31.2732 27.0514 30.9851 26.7116 30.9851 26.2673ZM12.5986 26.2673V25.0127H12.0485V25.3264C11.8652 25.0911 11.6033 24.9604 11.2628 24.9604C10.5556 24.9604 10.0056 25.5093 10.0056 26.2673C10.0056 27.0253 10.5556 27.5741 11.2628 27.5741C11.6295 27.5741 11.8914 27.4434 12.0485 27.2082V27.5218H12.5986V26.2673ZM10.5556 26.2673C10.5556 25.823 10.8438 25.457 11.3152 25.457C11.7604 25.457 12.0747 25.7968 12.0747 26.2673C12.0747 26.7116 11.7604 27.0775 11.3152 27.0775C10.8438 27.0514 10.5556 26.7116 10.5556 26.2673Z" fill="black"/>
<path d="M23.3364 5.95898H15.0861V20.7523H23.3364V5.95898Z" fill="#FF5F00"/>
<path d="M15.6103 13.356C15.6103 10.3503 17.0246 7.68432 19.1985 5.9593C17.6008 4.70474 15.5841 3.94678 13.384 3.94678C8.17188 3.94678 3.95505 8.15477 3.95505 13.356C3.95505 18.5572 8.17188 22.7652 13.384 22.7652C15.5841 22.7652 17.6008 22.0072 19.1985 20.7526C17.0246 19.0538 15.6103 16.3616 15.6103 13.356Z" fill="#EB001B"/>
<path d="M34.4682 13.356C34.4682 18.5572 30.2514 22.7652 25.0393 22.7652C22.8392 22.7652 20.8224 22.0072 19.2248 20.7526C21.4248 19.0276 22.813 16.3616 22.813 13.356C22.813 10.3503 21.3986 7.68432 19.2248 5.9593C20.8224 4.70474 22.8392 3.94678 25.0393 3.94678C30.2514 3.94678 34.4682 8.18091 34.4682 13.356Z" fill="#F79E1B"/>
</svg>
