<svg width="16" height="16" viewBox="0 0 16 16" fill="none" xmlns="http://www.w3.org/2000/svg">
<g clip-path="url(#clip0_4115_157324)">
<path d="M2.5 3.5V11.5C2.5 11.7652 2.60536 12.0196 2.79289 12.2071C2.98043 12.3946 3.23478 12.5 3.5 12.5H13.5C13.6326 12.5 13.7598 12.4473 13.8536 12.3536C13.9473 12.2598 14 12.1326 14 12V5C14 4.86739 13.9473 4.74021 13.8536 4.64645C13.7598 4.55268 13.6326 4.5 13.5 4.5H3.5C3.23478 4.5 2.98043 4.39464 2.79289 4.20711C2.60536 4.01957 2.5 3.76522 2.5 3.5ZM2.5 3.5C2.5 3.23478 2.60536 2.98043 2.79289 2.79289C2.98043 2.60536 3.23478 2.5 3.5 2.5H12" stroke="#02283F" stroke-linecap="round" stroke-linejoin="round"/>
<path d="M11.25 9C11.6642 9 12 8.66421 12 8.25C12 7.83579 11.6642 7.5 11.25 7.5C10.8358 7.5 10.5 7.83579 10.5 8.25C10.5 8.66421 10.8358 9 11.25 9Z" fill="#02283F"/>
</g>
<defs>
<clipPath id="clip0_4115_157324">
<rect width="16" height="16" fill="white"/>
</clipPath>
</defs>
</svg>
