<svg width="16" height="16" viewBox="0 0 16 16" fill="none" xmlns="http://www.w3.org/2000/svg">
<g clip-path="url(#clip0_4286_2664)">
<path d="M7.99998 14L13.585 8.33498C14.1711 7.74886 14.5004 6.9539 14.5004 6.12498C14.5004 5.29607 14.1711 4.50111 13.585 3.91498C12.9989 3.32886 12.2039 2.99957 11.375 2.99957C10.5461 2.99957 9.75111 3.32886 9.16498 3.91498L7.99998 4.99998L6.83498 3.91498C6.24886 3.32886 5.4539 2.99957 4.62498 2.99957C3.79607 2.99957 3.00111 3.32886 2.41498 3.91498C1.82886 4.50111 1.49957 5.29607 1.49957 6.12498C1.49957 6.9539 1.82886 7.74886 2.41498 8.33498L7.99998 14Z" fill="#F04E27" stroke="#F04E27" stroke-linecap="round" stroke-linejoin="round"/>
</g>
<defs>
<clipPath id="clip0_4286_2664">
<rect width="16" height="16" fill="white"/>
</clipPath>
</defs>
</svg>
