<svg width="16" height="16" viewBox="0 0 16 16" fill="none" xmlns="http://www.w3.org/2000/svg">
<g clip-path="url(#clip0_5105_67369)">
<path d="M9.75 5.5C10.1642 5.5 10.5 5.16421 10.5 4.75C10.5 4.33579 10.1642 4 9.75 4C9.33579 4 9 4.33579 9 4.75C9 5.16421 9.33579 5.5 9.75 5.5Z" fill="#02283F"/>
<path d="M0.5 10.9923L4.00437 11.9961L5.00437 15.5005L6.50437 11.9961C16.1569 11.7667 13.75 2.41797 13.6875 2.31297C13.5794 2.25047 4.23438 -0.153283 4 9.49422L0.5 10.9923Z" stroke="#02283F" stroke-linecap="round" stroke-linejoin="round"/>
<path d="M11.6137 10.4758C11.2033 10.5306 10.7858 10.492 10.3924 10.3629C9.99895 10.2338 9.63976 10.0175 9.3416 9.73012C9.04345 9.44279 8.81403 9.09183 8.67047 8.70344C8.52691 8.31505 8.47291 7.89925 8.5125 7.48707C8.1005 7.5266 7.68489 7.47263 7.29666 7.32917C6.90842 7.18571 6.55757 6.95647 6.27027 6.65854C5.98297 6.3606 5.76663 6.00166 5.63737 5.60847C5.50811 5.21528 5.46927 4.79799 5.52375 4.3877" stroke="#02283F" stroke-linecap="round" stroke-linejoin="round"/>
</g>
<defs>
<clipPath id="clip0_5105_67369">
<rect width="16" height="16" fill="white"/>
</clipPath>
</defs>
</svg>
