<svg width="16" height="16" viewBox="0 0 16 16" fill="none" xmlns="http://www.w3.org/2000/svg">
<path d="M6.79222 5.59766L6.90755 5.65543C6.90755 5.65543 8.77466 6.44988 10.6751 5.82343C10.6751 5.82343 12.4762 5.27343 13.4018 7.04566C14.0031 8.19788 13.5513 8.94343 13.1613 9.32454C12.9207 9.55943 12.7924 9.8861 12.8356 10.2197L12.9389 11.0183L12.8544 13.4619C12.8504 13.577 12.8019 13.686 12.7191 13.766C12.6362 13.846 12.5256 13.8907 12.4104 13.8908H12.2816C12.2188 13.8908 12.1569 13.8775 12.0996 13.8518C12.0424 13.8261 11.9913 13.7886 11.9496 13.7418C11.9079 13.6949 11.8766 13.6398 11.8578 13.58C11.8389 13.5202 11.8329 13.4571 11.8402 13.3948L11.8918 12.1925C11.9077 11.8138 11.8052 11.4396 11.5984 11.1219L10.8238 9.93366C10.8238 9.93366 10.1958 8.78766 10.7082 7.97788" stroke="#02283F" stroke-width="0.8" stroke-linecap="round" stroke-linejoin="round"/>
<path d="M8.01911 10.2501C8.80378 10.3519 10.0696 10.4534 10.6089 10.1479M14.0084 6.43521C14.0084 6.43521 14.7191 6.46565 14.7522 7.50454M4.34622 4.04899C4.34622 4.04899 4.95756 3.74076 5.02378 4.35699C5.05689 4.66499 4.87289 4.80032 4.72422 4.92321C4.50422 5.10476 3.97289 4.92832 3.66867 4.80321C3.55822 4.7581 3.43956 4.85543 3.46578 4.97165C3.544 5.31743 3.81333 5.79699 4.40289 5.88854C5.83333 6.11076 6.858 4.15854 5.48644 3.24188C3.99311 2.24343 3.32178 3.83743 3.32178 3.83743L2.71378 4.15854L2.46578 4.49454C2.46578 4.49454 1.11111 4.85765 1.55556 5.59232L1.94444 6.09232L2.87689 6.1801C2.99886 6.19165 3.1124 6.24738 3.19613 6.33681C3.27987 6.42624 3.32803 6.54319 3.33156 6.66565L3.56 7.67521L4.36978 9.40121C4.48183 9.63984 4.68283 9.82513 4.92978 9.91743L5.55178 10.1494C5.65311 10.411 5.71778 10.6217 5.71778 10.6217L5.45622 13.079C5.44962 13.141 5.45612 13.2036 5.47531 13.2629C5.49449 13.3222 5.52594 13.3768 5.5676 13.4232C5.60926 13.4695 5.66021 13.5066 5.71713 13.532C5.77405 13.5574 5.83567 13.5705 5.898 13.5705H6.06311C6.16651 13.5706 6.26669 13.5346 6.34639 13.4687C6.4261 13.4028 6.48034 13.3112 6.49978 13.2097L7.11533 9.99543C7.13089 9.9141 7.13467 9.83099 7.12644 9.74876L7.00667 8.52832" stroke="#02283F" stroke-width="0.8" stroke-linecap="round" stroke-linejoin="round"/>
</svg>
