<svg width="543" height="286" viewBox="0 0 543 286" fill="none" xmlns="http://www.w3.org/2000/svg">
<path d="M271.14 285.82C267.8 285.82 264.51 285.24 261.38 284.09L247.57 279.02C200.03 261.57 150.24 252.72 99.59 252.72C82.45 252.72 67.93 239.89 65.83 222.87L59.03 167.77C58.68 164.93 56.26 162.79 53.4 162.79H34.02C15.26 162.79 0 147.53 0 128.78V34.02C0 15.26 15.25 0 33.99 0C34.75 0 35.52 0.0300018 36.29 0.0800018C114.12 5.3 193.13 7.95 271.13 7.95C349.13 7.95 428.14 5.3 505.97 0.0800018C506.74 0.0300018 507.51 0 508.27 0C527.01 0 542.26 15.26 542.26 34.02V128.78C542.26 147.54 527 162.79 508.25 162.79H488.87C486.01 162.79 483.59 164.93 483.24 167.77L476.44 222.87C474.34 239.89 459.82 252.72 442.68 252.72C392.03 252.72 342.25 261.57 294.7 279.02L280.9 284.09C277.77 285.23 274.49 285.82 271.14 285.82Z" fill="#00263B"/>
<path d="M271.14 277.31C268.8 277.31 266.5 276.9 264.31 276.1L250.51 271.03C202.03 253.24 151.25 244.21 99.6 244.21C86.74 244.21 75.86 234.59 74.28 221.82L67.48 166.72C66.6 159.63 60.56 154.28 53.41 154.28H34.03C19.96 154.28 8.52 142.84 8.52 128.77V34.01C8.52 19.94 19.95 8.5 34.01 8.5C34.58 8.5 35.16 8.52 35.74 8.56C113.76 13.79 192.96 16.45 271.15 16.45C349.34 16.45 428.55 13.8 506.56 8.56C507.14 8.52 507.72 8.5 508.29 8.5C522.34 8.5 533.78 19.95 533.78 34.01V128.77C533.78 142.84 522.34 154.28 508.27 154.28H488.89C481.75 154.28 475.7 159.63 474.82 166.72L468.02 221.82C466.44 234.58 455.56 244.21 442.7 244.21C391.05 244.21 340.28 253.23 291.79 271.03L277.99 276.1C275.78 276.91 273.48 277.31 271.14 277.31Z" fill="#ABA76F"/>
<path d="M35.35 14.22C23.89 13.45 14.18 22.54 14.18 34.02V128.78C14.18 139.74 23.06 148.62 34.02 148.62H53.4C63.42 148.62 71.87 156.09 73.09 166.03L79.89 221.13C81.12 231.07 89.56 238.54 99.58 238.54C151.73 238.54 203.48 247.74 252.44 265.71L266.24 270.78C269.39 271.94 272.85 271.94 276.01 270.78L289.81 265.71C338.77 247.74 390.52 238.54 442.67 238.54C452.69 238.54 461.14 231.07 462.36 221.13L469.16 166.03C470.39 156.09 478.83 148.62 488.85 148.62H508.23C519.19 148.62 528.07 139.74 528.07 128.78V34.02C528.07 22.54 518.36 13.45 506.9 14.22C349.92 24.75 192.37 24.75 35.35 14.22Z" fill="#00263B"/>
<path d="M66.06 97.8V122.68H40.12V40.15H89.4C116.52 40.15 129.25 47.7 129.25 68.09C129.25 87.9 117.22 97.8 87.28 97.8H66.06ZM65.47 57.6V80.35H85.51C97.54 80.35 102.37 76.69 102.37 68.8C102.37 60.43 97.77 57.6 85.51 57.6H65.47Z" fill="white"/>
<path d="M140.16 40.15H192.39C218.45 40.15 229.18 48.87 229.18 66.68C229.18 76.94 225.76 86.96 209.84 91.91L235.19 122.68H205L182.83 94.74H166.1V122.68H140.16V40.15ZM187.2 78.11C198.17 78.11 202.53 75.16 202.53 67.62C202.53 60.55 198.4 57.6 186.61 57.6H165.51V78.11H187.2Z" fill="white"/>
<path d="M244.72 122.68V40.15H270.66V122.68H244.72Z" fill="white"/>
<path d="M381.38 122.68V68.92H380.55L355.44 122.68H338.34L313.23 68.92H312.4V122.68H287.41V40.15H322.93L346.72 92.64H347.07L370.98 40.15H406.38V122.68H381.38Z" fill="white"/>
<path d="M423.17 122.68V40.15H502.17V57.6H449.11V72.57H492.73V88.72H449.11V105.23H502.17V122.68H423.17Z" fill="white"/>
<path d="M117.58 173.31V190.7H97.39V139.12H149.68V152.31H117.58V160.12H145.71V173.31H117.58Z" fill="white"/>
<path d="M192.2 191.73C167.88 191.73 155.14 183.99 155.14 164.91C155.14 145.83 167.89 138.09 192.2 138.09C216.51 138.09 229.26 145.83 229.26 164.91C229.26 183.99 216.51 191.73 192.2 191.73ZM192.2 152.16C182.47 152.16 176.5 155.33 176.5 164.91C176.5 174.49 182.47 177.66 192.2 177.66C201.92 177.66 207.89 174.57 207.89 164.91C207.89 155.33 201.92 152.16 192.2 152.16Z" fill="white"/>
<path d="M273.05 191.73C248.73 191.73 235.99 183.99 235.99 164.91C235.99 145.83 248.74 138.09 273.05 138.09C297.36 138.09 310.11 145.83 310.11 164.91C310.11 183.99 297.36 191.73 273.05 191.73ZM273.05 152.16C263.32 152.16 257.35 155.33 257.35 164.91C257.35 174.49 263.32 177.66 273.05 177.66C282.77 177.66 288.74 174.57 288.74 164.91C288.74 155.33 282.77 152.16 273.05 152.16Z" fill="white"/>
<path d="M319.09 190.69V139.11H352.32C377.52 139.11 384.74 147.66 384.74 163.87C384.74 182.36 374.72 190.69 351.36 190.69H319.09ZM349.52 176.99C359.91 176.99 363.96 173.38 363.96 164.54C363.96 156.29 360.2 152.83 349.81 152.83H339.27V177H349.52V176.99Z" fill="white"/>
<path d="M392.55 175.96C395.94 177.07 405.37 179.05 414.51 179.05C421.36 179.05 423.79 178.17 423.79 175.44C423.79 172.49 418.85 172.13 411.93 170.8C411.63 170.73 409.57 170.28 409.35 170.28C395.42 167.55 390.86 162.4 390.86 154.44C390.86 143.09 399.78 138.08 418.05 138.08C429.47 138.08 439.71 139.63 444.94 141.17L442.51 153.03C437.06 151.92 428.14 150.82 421.73 150.82C415.02 150.82 412.96 151.85 412.96 153.91C412.96 156.56 417.68 156.78 428.36 159.22C428.66 159.22 430.94 159.74 431.31 159.81C443.98 162.61 447.74 167.32 447.74 175.06C447.74 186.11 437.72 191.71 418.34 191.71C404.27 191.71 394.98 189.94 390.19 188.1L392.55 175.96Z" fill="white"/>
<path d="M131.27 219.62V211.22H136.62C139.09 211.22 140.18 211.86 140.18 213.32C140.18 214.47 139.48 215.02 138.26 215.2V215.27C139.92 215.33 140.5 216.03 140.5 217.15C140.5 218.63 139.55 219.62 136.47 219.62H131.27ZM133.91 212.88V214.62H135.98C137.04 214.62 137.49 214.36 137.49 213.72C137.49 213.11 137.06 212.88 136 212.88H133.91ZM133.91 216.06V217.97H135.97C137.17 217.97 137.74 217.73 137.74 216.99C137.74 216.31 137.26 216.07 136.05 216.07H133.91V216.06Z" fill="#ABA76F"/>
<path d="M153.8 219.62V214.15H153.72L151.17 218.08H149.43L146.88 214.15H146.8V219.62H144.26V211.22H147.31L150.3 215.95H150.34L153.34 211.22H156.37V219.62H153.8Z" fill="#ABA76F"/>
<path d="M160.43 219.62V211.22H168.47V213H163.07V214.52H167.51V216.16H163.07V217.84H168.47V219.62H160.43Z" fill="#ABA76F"/>
<path d="M181.17 219.24C180.51 219.49 178.65 219.77 177.3 219.77C173.38 219.77 171.59 218.55 171.59 215.5C171.59 212.45 173.35 211.09 177.56 211.09C178.95 211.09 180.57 211.35 181.17 211.53L180.8 213.33C179.98 213.17 178.77 213.04 177.89 213.04C175.67 213.04 174.39 213.58 174.39 215.44C174.39 217.26 175.57 217.82 177.87 217.82C178.96 217.82 179.96 217.68 180.81 217.44L181.17 219.24Z" fill="#ABA76F"/>
<path d="M187.77 219.62V213.22H184.34V211.23H193.83V213.22H190.41V219.62H187.77Z" fill="#ABA76F"/>
<path d="M197.34 219.62V211.22H205.38V213H199.98V214.52H204.42V216.16H199.98V217.84H205.38V219.62H197.34Z" fill="#ABA76F"/>
<path d="M221.92 215.32C223.55 215.45 224.15 216.11 224.15 217.21C224.15 218.83 222.95 219.76 219.22 219.76C217.94 219.76 216.11 219.62 215.03 219.26L215.37 217.6C216.5 217.85 217.44 217.98 218.8 217.98C220.65 217.98 221.19 217.67 221.19 217.01C221.19 216.37 220.76 216.12 219.39 216.12H217.04V214.57H219.1C220.34 214.57 220.98 214.43 220.98 213.67C220.98 213.02 220.4 212.84 218.92 212.84C217.61 212.84 216.77 212.98 215.59 213.26L215.25 211.6C216.65 211.23 218.26 211.06 219.6 211.06C222.87 211.06 223.82 211.86 223.82 213.25C223.82 214.41 223.17 214.99 221.91 215.23V215.32H221.92Z" fill="#ABA76F"/>
<path d="M231.19 211.22H234.7L238.74 219.63H235.95L235.15 217.92H230.62L229.8 219.63H227.09L231.19 211.22ZM234.37 216.11L232.92 212.99H232.87L231.38 216.11H234.37Z" fill="#ABA76F"/>
<path d="M254 219.77C250.2 219.77 248.14 218.51 248.14 215.43C248.14 212.35 250.2 211.09 254 211.09C257.8 211.09 259.88 212.35 259.88 215.43C259.88 218.51 257.81 219.77 254 219.77ZM254 212.97C252.09 212.97 250.93 213.59 250.93 215.43C250.93 217.27 252.09 217.89 254 217.89C255.91 217.89 257.08 217.28 257.08 215.43C257.09 213.59 255.91 212.97 254 212.97Z" fill="#ABA76F"/>
<path d="M272.59 221.57L272.45 219.63H265.2L265.06 221.57H262.87V217.68H264.05C264.89 216.34 265.18 214.5 265.27 212.13L265.31 211.23H273.41V217.68H274.79V221.57H272.59ZM270.77 213.1H267.56C267.49 214.59 267.26 216.27 266.59 217.69H270.78V213.1H270.77Z" fill="#ABA76F"/>
<path d="M286.04 219.62V216.31H280.99V219.62H278.35V211.22H280.99V214.36H286.04V211.22H288.68V219.62H286.04Z" fill="#ABA76F"/>
<path d="M300.41 219.62V214.1H300.37L295.49 219.62H292.77V211.22H295.41V216.74H295.45L300.33 211.22H303.05V219.62H300.41Z" fill="#ABA76F"/>
<path d="M316.69 219.62V214.15H316.61L314.06 218.08H312.32L309.77 214.15H309.69V219.62H307.15V211.22H310.2L313.19 215.95H313.2L316.2 211.22H319.23V219.62H316.69Z" fill="#ABA76F"/>
<path d="M338.93 219.24C338.27 219.49 336.41 219.77 335.06 219.77C331.14 219.77 329.35 218.55 329.35 215.5C329.35 212.45 331.11 211.09 335.32 211.09C336.71 211.09 338.33 211.35 338.93 211.53L338.56 213.33C337.74 213.17 336.53 213.04 335.64 213.04C333.42 213.04 332.14 213.58 332.14 215.44C332.14 217.26 333.32 217.82 335.62 217.82C336.71 217.82 337.71 217.68 338.56 217.44L338.93 219.24Z" fill="#ABA76F"/>
<path d="M345.52 219.62V213.22H342.09V211.23H351.58V213.22H348.16V219.62H345.52Z" fill="#ABA76F"/>
<path d="M360.25 219.77C356.45 219.77 354.39 218.51 354.39 215.43C354.39 212.35 356.45 211.09 360.25 211.09C364.05 211.09 366.13 212.35 366.13 215.43C366.13 218.51 364.05 219.77 360.25 219.77ZM360.25 212.97C358.34 212.97 357.18 213.59 357.18 215.43C357.18 217.27 358.34 217.89 360.25 217.89C362.16 217.89 363.33 217.28 363.33 215.43C363.33 213.59 362.16 212.97 360.25 212.97Z" fill="#ABA76F"/>
<path d="M377.06 219.62V213.18H373.64C373.53 217.25 373.23 219.78 369.47 219.76L369.12 217.58C370.87 217.48 371.13 216.6 371.23 212.78L371.27 211.22H379.69V219.62H377.06Z" fill="#ABA76F"/>
<path d="M389.3 219.77C385.5 219.77 383.44 218.51 383.44 215.43C383.44 212.35 385.5 211.09 389.3 211.09C393.1 211.09 395.18 212.35 395.18 215.43C395.18 218.51 393.1 219.77 389.3 219.77ZM389.3 212.97C387.39 212.97 386.23 213.59 386.23 215.43C386.23 217.27 387.39 217.89 389.3 217.89C391.21 217.89 392.38 217.28 392.38 215.43C392.39 213.59 391.21 212.97 389.3 212.97Z" fill="#ABA76F"/>
<path d="M408.48 219.62V214.15H408.4L405.85 218.08H404.11L401.56 214.15H401.48V219.62H398.94V211.22H401.99L404.98 215.95H405.02L408.02 211.22H411.05V219.62H408.48Z" fill="#ABA76F"/>
<path d="M218.13 237.24C217.47 237.49 215.61 237.77 214.26 237.77C210.34 237.77 208.55 236.55 208.55 233.5C208.55 230.45 210.31 229.09 214.52 229.09C215.91 229.09 217.53 229.35 218.13 229.53L217.76 231.33C216.94 231.17 215.73 231.04 214.85 231.04C212.63 231.04 211.35 231.58 211.35 233.44C211.35 235.26 212.53 235.82 214.83 235.82C215.92 235.82 216.92 235.68 217.77 235.44L218.13 237.24Z" fill="#ABA76F"/>
<path d="M284.99 231.19V237.62H282.35V229.22H289.89V231.19H284.99Z" fill="#ABA76F"/>
<path d="M298.5 237.77C294.7 237.77 292.64 236.51 292.64 233.43C292.64 230.35 294.7 229.09 298.5 229.09C302.3 229.09 304.38 230.35 304.38 233.43C304.38 236.51 302.3 237.77 298.5 237.77ZM298.5 230.97C296.59 230.97 295.43 231.59 295.43 233.43C295.43 235.27 296.59 235.89 298.5 235.89C300.41 235.89 301.58 235.28 301.58 233.43C301.58 231.59 300.41 230.97 298.5 230.97Z" fill="#ABA76F"/>
<path d="M317.09 239.57L316.95 237.63H309.71L309.57 239.57H307.38V235.68H308.56C309.4 234.34 309.69 232.5 309.78 230.13L309.82 229.23H317.92V235.68H319.3V239.57H317.09ZM315.26 231.1H312.05C311.98 232.59 311.75 234.27 311.08 235.69H315.27V231.1H315.26Z" fill="#ABA76F"/>
<path d="M326.57 229.22H330.08L334.12 237.63H331.33L330.53 235.92H326L325.18 237.63H322.47L326.57 229.22ZM329.75 234.11L328.3 230.99H328.25L326.76 234.11H329.75Z" fill="#ABA76F"/>
<path d="M228.71 235.82L230.86 234.8C233.42 233.62 234.18 232.97 234.18 232.11C234.18 231.36 233.68 230.97 232.14 230.97C231.08 230.97 229.87 231.2 229.06 231.47L228.71 229.7C230.03 229.27 231.69 229.08 233.09 229.08C236.22 229.08 237.2 229.99 237.2 231.54C237.2 233.08 236.13 234.14 233.37 235.36L232.48 235.78V235.83H237.32V237.63H228.73V235.82H228.71Z" fill="#ABA76F"/>
<path d="M245.6 237.78C242.32 237.78 240.58 236.61 240.58 233.43C240.58 230.24 242.32 229.08 245.6 229.08C248.87 229.08 250.62 230.25 250.62 233.43C250.62 236.62 248.86 237.78 245.6 237.78ZM247.78 233.43C247.78 231.58 247.1 230.82 245.6 230.82C244.1 230.82 243.42 231.58 243.42 233.43C243.42 235.28 244.1 236.04 245.6 236.04C247.1 236.04 247.78 235.28 247.78 233.43Z" fill="#ABA76F"/>
<path d="M256.57 237.64V231.24H253.71V229.86L257.87 229.22H259.26V237.64H256.57Z" fill="#ABA76F"/>
<path d="M268.56 231.07V231.05H263.06V229.22H271.5V230.76L267.53 237.64H264.46L268.56 231.07Z" fill="#ABA76F"/>
</svg>
